<?xml version="1.0" encoding="UTF-8"?>
<!-- Generator: visioncortex VTracer 0.6.4 -->
<svg version="1.1" xmlns="http://www.w3.org/2000/svg" width="345" height="356">
<path d="M0 0 C26.25 -0.58 49.96 7.75 69.45 25.39 C73.32 29.13 73.32 29.13 74.94 31.12 C74.94 31.78 74.94 32.44 74.94 33.12 C75.51 33.32 76.08 33.51 76.66 33.72 C79.83 35.66 81.41 38.4 83.31 41.49 C83.71 42.12 84.1 42.75 84.5 43.4 C98.83 66.71 103.77 94.11 97.54 121.1 C96.57 124.55 95.37 127.83 93.94 131.12 C93.64 131.81 93.34 132.5 93.03 133.21 C87.88 144.72 81.39 155.38 73.42 165.14 C71.98 167.06 70.94 168.94 69.94 171.12 C69.28 171.12 68.62 171.12 67.94 171.12 C67.74 171.78 67.55 172.44 67.34 173.12 C65.36 177.35 62.46 180.57 59.44 184.12 C54.02 190.56 48.83 197.1 43.83 203.87 C42.89 204.98 42.89 204.98 41.94 206.12 C41.28 206.12 40.62 206.12 39.94 206.12 C39.69 206.68 39.44 207.25 39.18 207.83 C34.48 216.46 25.25 224.54 17.94 231.12 C17.28 231.12 16.62 231.12 15.94 231.12 C15.94 231.78 15.94 232.44 15.94 233.12 C10.01 236.28 4.62 237.15 -2.06 236.12 C-5.09 234.85 -7.51 233.16 -10.06 231.12 C-11.07 230.35 -12.08 229.59 -13.12 228.8 C-16.03 226.14 -18.57 223.38 -21.12 220.38 C-24.1 216.91 -27.23 213.57 -30.34 210.22 C-32.06 208.12 -32.06 208.12 -32.06 206.12 C-33.05 205.79 -34.04 205.46 -35.06 205.12 C-36.72 203.32 -36.72 203.32 -38.56 200.93 C-39.27 200.03 -39.97 199.12 -40.69 198.2 C-41.47 197.18 -42.26 196.16 -43.06 195.12 C-44.4 193.4 -45.75 191.68 -47.1 189.96 C-48.03 188.77 -48.97 187.58 -49.9 186.39 C-52.15 183.52 -54.42 180.67 -56.77 177.88 C-57.59 176.91 -58.41 175.93 -59.25 174.93 C-59.99 174.07 -60.72 173.21 -61.48 172.32 C-63.06 170.12 -63.06 170.12 -63.06 167.12 C-63.72 167.12 -64.38 167.12 -65.06 167.12 C-66.38 165.36 -67.62 163.53 -68.81 161.68 C-69.88 160.04 -69.88 160.04 -70.97 158.36 C-72.01 156.75 -72.01 156.75 -73.06 155.12 C-74.14 153.51 -75.23 151.91 -76.31 150.3 C-81.78 142.08 -85.73 133.65 -88.69 124.24 C-88.9 123.59 -89.12 122.93 -89.34 122.25 C-96.81 98.61 -92.18 71.64 -81.27 49.99 C-76.46 40.79 -70.57 32.47 -62.38 25.99 C-59.87 24.15 -59.87 24.15 -58.06 21.12 C-57.07 21.12 -56.08 21.12 -55.06 21.12 C-55.06 20.46 -55.06 19.8 -55.06 19.12 C-39.92 6.18 -19.39 0.74 0 0 Z " fill="#073C67" transform="translate(174.0625,2.8828125)"/>
<path d="M0 0 C4.34 3.53 6.43 8.23 8.75 13.19 C9.08 13.86 9.41 14.53 9.75 15.22 C12.12 20.27 12.12 20.27 11 23.62 C7.44 25.31 7.44 25.31 4 26.62 C4.32 30.36 4.87 31.5 7.62 34.19 C8.41 34.99 9.19 35.8 10 36.62 C9.77 40.5 7.36 43.08 5.06 46.06 C4.67 46.58 4.27 47.09 3.86 47.63 C3.02 48.72 2.17 49.82 1.32 50.92 C-0.01 52.64 -1.33 54.38 -2.64 56.12 C-7.05 61.95 -11.53 67.29 -16.8 72.36 C-18.24 73.74 -19.62 75.18 -21 76.62 C-21 77.28 -21 77.94 -21 78.62 C-18.1 78.54 -16.45 78.08 -14.4 76 C-13.36 74.73 -12.33 73.43 -11.33 72.12 C-10.89 71.63 -10.45 71.13 -10 70.62 C-9.34 70.62 -8.68 70.62 -8 70.62 C-7.77 70.09 -7.55 69.55 -7.32 69 C-5.58 65.87 -3.29 63.35 -0.94 60.69 C2.96 56.14 6.74 51.54 10.25 46.69 C11 45.67 11.75 44.65 12.52 43.6 C14.3 40.03 14.15 38.39 13 34.62 C11.5 32.96 11.5 32.96 10 31.62 C10 30.63 10 29.65 10 28.62 C12.97 27.14 12.97 27.14 16 25.62 C15.4 19.97 13.92 14.96 12 9.62 C16.84 11.72 21.63 13.89 26.38 16.19 C27.19 16.58 28 16.97 28.84 17.38 C32.29 19.37 33.73 20.81 35 24.62 C35.11 27.04 35.17 29.43 35.18 31.85 C35.18 32.58 35.19 33.31 35.2 34.07 C35.22 36.49 35.23 38.91 35.24 41.33 C35.24 42.16 35.25 42.99 35.25 43.84 C35.27 48.23 35.29 52.61 35.3 56.99 C35.31 61.52 35.34 66.04 35.38 70.56 C35.41 74.04 35.41 77.52 35.42 81.01 C35.42 82.67 35.43 84.34 35.45 86.01 C35.48 88.34 35.48 90.68 35.47 93.01 C35.48 93.7 35.5 94.38 35.51 95.09 C35.44 101.45 32.69 104.94 28.33 109.3 C15.26 120.78 -4.14 133.93 -22.28 132.93 C-24 132.62 -24 132.62 -25 131.62 C-25.11 129.95 -25.15 128.28 -25.16 126.61 C-25.17 125.53 -25.18 124.46 -25.19 123.36 C-25.19 122.19 -25.2 121.02 -25.2 119.81 C-25.21 118.61 -25.21 117.42 -25.22 116.18 C-25.23 113.64 -25.24 111.09 -25.24 108.55 C-25.25 104.67 -25.28 100.79 -25.31 96.92 C-25.32 94.45 -25.32 91.97 -25.33 89.5 C-25.34 88.35 -25.35 87.19 -25.37 86 C-25.34 76.33 -22.98 69.31 -18.75 60.69 C-10.62 43.67 -2.84 25.81 -4 6.62 C-7.27 4.69 -9.72 4.37 -13.5 4.36 C-14.55 4.36 -15.6 4.35 -16.69 4.35 C-17.78 4.36 -18.87 4.37 -20 4.38 C-21.09 4.37 -22.19 4.36 -23.31 4.35 C-24.36 4.35 -25.42 4.36 -26.5 4.36 C-27.94 4.36 -27.94 4.36 -29.41 4.37 C-32.1 4.64 -33.73 5.16 -36 6.62 C-40.3 15.22 -34.37 28.59 -31.54 37.12 C-29.48 43.14 -27.41 48.99 -24.44 54.62 C-22.77 58.1 -23.06 60.04 -24.25 63.69 C-24.8 65.01 -25.38 66.33 -26 67.62 C-35.05 63.65 -41.16 52.34 -47 44.62 C-47.59 43.89 -48.19 43.15 -48.8 42.38 C-50 40.62 -50 40.62 -50 38.25 C-49.03 35.7 -48.15 34.5 -46.38 32.5 C-45.59 31.55 -44.81 30.6 -44 29.62 C-44.5 28.14 -44.5 28.14 -45 26.62 C-48.5 24.91 -48.5 24.91 -52 23.62 C-51.42 19 -50.16 15.28 -48.19 11.06 C-47.69 9.97 -47.18 8.87 -46.67 7.75 C-42.67 0.26 -42.67 0.26 -38 -1.52 C-25.61 -3.92 -11.85 -5.43 0 0 Z " fill="#49A3D7" transform="translate(198,50.375)"/>
<path d="M0 0 C-0.95 2.93 -1.89 5.77 -3.19 8.56 C-4.15 11.45 -3.82 13.11 -3 16 C-1.02 16.66 0.96 17.32 3 18 C2.43 21.87 0.51 24.08 -2 27 C-0.73 30.46 0.72 33.26 2.91 36.22 C3.78 37.4 3.78 37.4 4.66 38.61 C5.27 39.42 5.88 40.23 6.5 41.06 C7.07 41.85 7.65 42.63 8.24 43.44 C8.83 44.23 9.42 45.03 10.03 45.85 C10.65 46.7 11.26 47.55 11.9 48.42 C13.95 51.1 13.95 51.1 16.69 53.29 C22.13 58.27 24.19 61.9 24.7 69.2 C24.89 76.73 24.51 84.23 24.12 91.75 C24.03 94.39 23.93 97.04 23.84 99.68 C23.62 106.12 23.33 112.56 23 119 C21.42 118.71 19.85 118.42 18.27 118.12 C16.95 117.87 16.95 117.87 15.61 117.62 C11.56 116.66 8.12 114.88 4.5 112.88 C3.77 112.48 3.03 112.08 2.28 111.67 C-6.19 106.95 -17.51 99.97 -22 91 C-22.11 88.59 -22.16 86.2 -22.16 83.78 C-22.17 83.04 -22.17 82.3 -22.18 81.53 C-22.19 79.07 -22.2 76.6 -22.2 74.14 C-22.21 72.43 -22.21 70.71 -22.22 69 C-22.23 65.41 -22.24 61.82 -22.24 58.23 C-22.25 53.63 -22.27 49.03 -22.3 44.43 C-22.32 40.89 -22.32 37.35 -22.32 33.81 C-22.33 32.12 -22.33 30.42 -22.35 28.73 C-22.36 26.35 -22.36 23.98 -22.36 21.6 C-22.37 20.91 -22.37 20.21 -22.38 19.49 C-22.35 15.15 -21.61 12.47 -19 9 C-17.24 7.56 -17.24 7.56 -15.31 6.44 C-14.61 6.03 -13.92 5.62 -13.2 5.2 C-3.7 0 -3.7 0 0 0 Z " fill="#49A4D8" transform="translate(145,61)"/>
<path d="M0 0 C-3.44 2.29 -4.99 2.18 -9 2 C-8.01 2.66 -7.02 3.32 -6 4 C-8.64 3.67 -11.28 3.34 -14 3 C-12.74 5.51 -11.5 5.87 -9 7 C-10.25 8.56 -10.25 8.56 -12 10 C-14.19 9.69 -14.19 9.69 -16 9 C-15.34 9 -14.68 9 -14 9 C-14 8.34 -14 7.68 -14 7 C-14.99 7.33 -15.98 7.66 -17 8 C-16.5 11.46 -16.5 11.46 -16 15 C-15.34 15 -14.68 15 -14 15 C-13.5 16.48 -13.5 16.48 -13 18 C-14.88 19.06 -14.88 19.06 -17 20 C-17.66 19.67 -18.32 19.34 -19 19 C-19.5 21.48 -19.5 21.48 -20 24 C-19.34 24 -18.68 24 -18 24 C-17.67 24 -17.34 24 -17 24 C-16.46 23.32 -15.93 22.64 -15.38 21.94 C-13 20 -13 20 -9.25 20.25 C-8.18 20.5 -7.11 20.75 -6 21 C-6 22.32 -6 23.64 -6 25 C-7.65 25 -9.3 25 -11 25 C-11 29.29 -11 33.58 -11 38 C-12.32 38 -13.64 38 -15 38 C-15 36.35 -15 34.7 -15 33 C-15.66 32.67 -16.32 32.34 -17 32 C-17.62 29.94 -17.62 29.94 -18 28 C-18.66 28 -19.32 28 -20 28 C-20 27.01 -20 26.02 -20 25 C-20.66 25 -21.32 25 -22 25 C-22 27.31 -22 29.62 -22 32 C-22.66 31.67 -23.32 31.34 -24 31 C-24.5 29.02 -24.5 29.02 -25 27 C-25.33 29.97 -25.66 32.94 -26 36 C-26.99 35.51 -26.99 35.51 -28 35 C-28.33 38.63 -28.66 42.26 -29 46 C-30.32 45.67 -31.64 45.34 -33 45 C-33.06 43.34 -33.06 43.34 -33.11 41.64 C-33.18 40.18 -33.25 38.71 -33.31 37.25 C-33.35 36.16 -33.35 36.16 -33.38 35.04 C-33.59 30.79 -33.97 28.09 -37 25 C-37.33 25.66 -37.66 26.32 -38 27 C-37.34 27.33 -36.68 27.66 -36 28 C-35.78 30.75 -35.57 33.5 -35.38 36.25 C-35.31 37.03 -35.25 37.8 -35.18 38.61 C-34.68 45.85 -34.68 45.85 -37 49 C-40.43 52 -40.43 52 -43 52 C-43 48.7 -43 45.4 -43 42 C-44.42 41.94 -45.85 41.88 -47.31 41.81 C-48.11 41.78 -48.91 41.74 -49.74 41.71 C-52.51 42.07 -53.16 42.99 -55 45 C-59.35 44.89 -61.98 43.02 -65 40 C-65 38.68 -65 37.36 -65 36 C-66.32 35.67 -67.64 35.34 -69 35 C-69 35.99 -69 36.98 -69 38 C-69.66 37.61 -70.32 37.22 -71 36.81 C-75.2 35.68 -78.25 36.93 -82 39 C-82.33 39.66 -82.66 40.32 -83 41 C-83.66 40.67 -84.32 40.34 -85 40 C-81.27 34.57 -77.52 30 -72.31 25.88 C-69.81 24.03 -69.81 24.03 -68 21 C-67.01 21 -66.02 21 -65 21 C-65 20.34 -65 19.68 -65 19 C-46.77 3.42 -23.03 -0.33 0 0 Z " fill="#093C67" transform="translate(184,3)"/>
<path d="M0 0 C0.9 0.01 1.79 0.03 2.71 0.04 C4.06 0.05 4.06 0.05 5.44 0.06 C7.65 0.23 7.65 0.23 8.65 1.23 C8.81 3.08 8.9 4.94 8.97 6.8 C9.03 8.48 9.03 8.48 9.1 10.21 C9.14 11.39 9.17 12.57 9.21 13.79 C9.26 14.98 9.3 16.17 9.35 17.39 C9.45 20.34 9.55 23.28 9.65 26.23 C10.31 25.24 10.97 24.25 11.65 23.23 C12.31 23.23 12.97 23.23 13.65 23.23 C13.88 22.67 14.11 22.12 14.34 21.54 C16.23 18.21 17.46 16.49 20.65 14.23 C25.02 13.8 29.28 13.94 33.65 14.23 C33.85 16.55 33.85 16.55 33.65 19.23 C32.33 20.79 32.33 20.79 30.53 22.11 C26.7 25.1 23.7 28.46 20.65 32.23 C22.36 37.75 26 41.28 29.84 45.41 C32.15 48.01 33.58 49.63 33.99 53.14 C33.88 53.83 33.77 54.52 33.65 55.23 C29.11 56 25.17 56.24 20.65 55.23 C16.43 52.08 13.63 47.5 10.65 43.23 C10.32 43.23 9.99 43.23 9.65 43.23 C9.66 43.93 9.68 44.63 9.69 45.35 C9.7 46.71 9.7 46.71 9.71 48.11 C9.73 49.01 9.74 49.92 9.75 50.85 C9.65 53.23 9.65 53.23 8.65 55.23 C4.69 55.23 0.73 55.23 -3.35 55.23 C-5.76 49.59 -5.55 44.44 -5.39 38.43 C-5.37 37.4 -5.35 36.37 -5.33 35.31 C-5.29 33.14 -5.24 30.98 -5.18 28.81 C-5.1 25.48 -5.04 22.15 -4.98 18.82 C-4.93 16.71 -4.88 14.6 -4.83 12.5 C-4.81 11.5 -4.8 10.5 -4.78 9.47 C-4.75 8.55 -4.73 7.63 -4.7 6.68 C-4.68 5.86 -4.66 5.05 -4.64 4.21 C-4.18 1.12 -3.05 0.3 0 0 Z M8.65 39.23 C9.65 42.23 9.65 42.23 9.65 42.23 Z " fill="#0F3A60" transform="translate(309.34765625,255.76953125)"/>
<path d="M0 0 C4.07 2.16 6.31 4.97 8.18 9.16 C8.9 14.52 8.75 19.76 8.56 25.16 C8.53 26.61 8.5 28.07 8.48 29.53 C8.41 33.07 8.31 36.61 8.18 40.16 C3.52 40.16 -1.15 40.16 -5.82 40.16 C-6.85 40.51 -7.88 40.86 -8.94 41.22 C-14.89 42.66 -21.4 42.25 -26.82 39.16 C-29.72 36.8 -30.7 35.04 -31.2 31.34 C-31.36 26.82 -31.3 23.24 -29.44 19.09 C-21.83 13.48 -13.82 13.87 -4.82 15.16 C-4.82 14.17 -4.82 13.18 -4.82 12.16 C-5.48 12.16 -6.14 12.16 -6.82 12.16 C-6.82 11.5 -6.82 10.84 -6.82 10.16 C-13.18 9.82 -17.09 10.16 -22.82 13.16 C-24.14 12.5 -25.46 11.84 -26.82 11.16 C-26.82 8.19 -26.82 5.22 -26.82 2.16 C-17.86 -1.73 -9.51 -3.88 0 0 Z M-17.82 25.16 C-17.98 27.66 -17.98 27.66 -17.82 30.16 C-16.24 31.74 -14.62 31.36 -12.44 31.41 C-11.65 31.43 -10.86 31.46 -10.04 31.49 C-7.76 31.32 -7.76 31.32 -6.03 29.89 C-4.43 27.96 -4.43 27.96 -4.82 24.16 C-6.8 24.13 -8.77 24.11 -10.75 24.09 C-12.41 24.08 -12.41 24.08 -14.09 24.06 C-16.73 23.84 -16.73 23.84 -17.82 25.16 Z " fill="#154067" transform="translate(70.81640625,270.8427734375)"/>
<path d="M0 0 C4.6 4.16 7.54 8.55 8.37 14.8 C8.53 22.06 7.66 27.27 3 33 C-2.13 37.98 -7.79 39.74 -14.88 40.31 C-21.03 40.12 -26.17 38.17 -31.31 34.88 C-36.11 29.74 -38.2 24.53 -38.56 17.5 C-38.27 10.41 -35.31 4.85 -30.12 0.06 C-21.09 -5.9 -9.05 -6.02 0 0 Z M-24 12 C-25.55 14.9 -26.22 16.78 -25.62 20.05 C-24.5 23.54 -23.48 25.58 -20.69 28 C-16.45 29.57 -13.49 29.62 -9.31 27.88 C-6.35 25.48 -5.25 23.6 -4 20 C-4 15.42 -4.48 13.6 -7.5 10.12 C-8.74 9.07 -8.74 9.07 -10 8 C-10.33 7.67 -10.66 7.34 -11 7 C-17.3 6.37 -20.02 6.62 -24 12 Z " fill="#113D64" transform="translate(158,273)"/>
<path d="M0 0 C2.89 2.04 4.05 3.63 5.56 6.81 C6.09 7.92 6.09 7.92 6.63 9.05 C7.76 12.39 7.79 15.12 7.76 18.64 C7.75 19.94 7.74 21.23 7.74 22.56 C7.72 23.92 7.7 25.27 7.69 26.62 C7.68 28 7.67 29.37 7.66 30.75 C7.64 34.1 7.6 37.46 7.56 40.81 C3.6 40.81 -0.36 40.81 -4.44 40.81 C-4.49 39.21 -4.54 37.61 -4.59 35.96 C-4.66 33.85 -4.74 31.74 -4.81 29.62 C-4.84 28.57 -4.87 27.51 -4.91 26.43 C-4.94 25.41 -4.98 24.38 -5.02 23.33 C-5.07 21.93 -5.07 21.93 -5.12 20.49 C-5.46 17.61 -6.15 15.41 -7.44 12.81 C-10.21 11.43 -12.37 11.62 -15.44 11.81 C-18.69 13.53 -18.69 13.53 -19.44 16.81 C-19.57 18.57 -19.66 20.34 -19.72 22.1 C-19.76 23.13 -19.79 24.15 -19.83 25.2 C-19.9 27.37 -19.97 29.53 -20.04 31.7 C-20.08 32.72 -20.12 33.74 -20.16 34.79 C-20.2 36.2 -20.2 36.2 -20.25 37.64 C-20.44 39.81 -20.44 39.81 -21.44 40.81 C-23.27 40.91 -25.1 40.94 -26.94 40.94 C-27.94 40.94 -28.94 40.94 -29.97 40.95 C-32.44 40.81 -32.44 40.81 -33.44 39.81 C-33.53 36.93 -33.55 34.07 -33.54 31.18 C-33.53 30.32 -33.53 29.46 -33.53 28.56 C-33.53 25.79 -33.51 23.02 -33.5 20.25 C-33.49 18.38 -33.49 16.5 -33.49 14.63 C-33.48 10.02 -33.46 5.42 -33.44 0.81 C-31.03 -0.39 -29.49 -0.29 -26.81 -0.25 C-25.59 -0.24 -25.59 -0.24 -24.34 -0.22 C-23.4 -0.21 -23.4 -0.21 -22.44 -0.19 C-22.11 0.8 -21.78 1.79 -21.44 2.81 C-20.78 2.81 -20.12 2.81 -19.44 2.81 C-19.44 2.15 -19.44 1.49 -19.44 0.81 C-13.02 -1.89 -6.57 -2.27 0 0 Z " fill="#0C385F" transform="translate(291.4375,270.1875)"/>
<path d="M0 0 C5.82 -0.02 11.64 -0.04 17.46 -0.05 C19.44 -0.06 21.43 -0.07 23.41 -0.08 C26.25 -0.09 29.09 -0.09 31.93 -0.1 C32.83 -0.1 33.72 -0.11 34.64 -0.11 C36.76 -0.11 38.88 -0.06 41 0 C42 1 42 1 42.1 3.29 C42.07 5.86 42.03 8.43 42 11 C37.38 11 32.76 11 28 11 C28.01 12.9 28.01 12.9 28.02 14.84 C28.03 19.52 28.05 24.21 28.05 28.89 C28.06 30.92 28.07 32.95 28.08 34.98 C28.09 37.89 28.09 40.8 28.1 43.71 C28.1 44.63 28.11 45.54 28.11 46.48 C28.11 48.66 28.06 50.83 28 53 C27 54 27 54 24.53 54.13 C23.03 54.13 23.03 54.13 21.5 54.12 C20.5 54.13 19.5 54.13 18.47 54.13 C16 54 16 54 15 53 C14.91 49.9 14.88 46.82 14.9 43.71 C14.9 42.78 14.91 41.85 14.91 40.89 C14.91 37.91 14.92 34.92 14.94 31.94 C14.94 29.92 14.95 27.9 14.95 25.88 C14.96 20.92 14.98 15.96 15 11 C10.05 11 5.1 11 0 11 C-1.49 8.01 -1.12 5.29 -1 2 C-0.67 1.34 -0.34 0.68 0 0 Z " fill="#184065" transform="translate(4,257)"/>
<path d="M0 0 C1.51 0.02 1.51 0.02 3.06 0.04 C4.07 0.04 5.08 0.05 6.12 0.06 C7.3 0.08 7.3 0.08 8.5 0.1 C10.19 3.48 9.62 7.32 9.59 11.04 C9.59 11.93 9.59 12.81 9.59 13.72 C9.58 16.56 9.57 19.39 9.56 22.22 C9.55 24.14 9.55 26.06 9.54 27.98 C9.53 32.68 9.52 37.39 9.5 42.1 C10.13 42.09 10.76 42.09 11.41 42.08 C14.25 42.06 17.09 42.05 19.93 42.04 C21.42 42.02 21.42 42.02 22.94 42.01 C23.89 42.01 24.83 42 25.8 42 C26.68 41.99 27.55 41.99 28.45 41.98 C30.5 42.1 30.5 42.1 31.5 43.1 C31.59 44.76 31.63 46.43 31.62 48.1 C31.62 49.46 31.62 49.46 31.63 50.85 C31.5 53.1 31.5 53.1 30.5 54.1 C28.06 54.2 25.65 54.24 23.21 54.23 C22.49 54.23 21.76 54.23 21.01 54.23 C19.46 54.23 17.92 54.23 16.38 54.23 C14.01 54.22 11.64 54.23 9.27 54.23 C7.77 54.23 6.27 54.23 4.78 54.23 C3.71 54.23 3.71 54.23 2.62 54.24 C-2.39 54.21 -2.39 54.21 -3.5 53.1 C-3.6 51.48 -3.63 49.85 -3.63 48.23 C-3.64 47.19 -3.64 46.15 -3.64 45.08 C-3.64 43.95 -3.64 42.82 -3.64 41.66 C-3.64 39.93 -3.64 39.93 -3.64 38.17 C-3.64 35.74 -3.64 33.3 -3.63 30.86 C-3.63 27.11 -3.63 23.37 -3.64 19.62 C-3.64 17.26 -3.64 14.9 -3.64 12.54 C-3.64 11.41 -3.64 10.28 -3.64 9.11 C-3.64 8.08 -3.64 7.04 -3.63 5.97 C-3.63 5.05 -3.63 4.13 -3.63 3.19 C-3.44 0.11 -3.1 0.12 0 0 Z " fill="#0C3960" transform="translate(204.50390625,256.90234375)"/>
<path d="M0 0 C1.05 -0.02 1.05 -0.02 2.12 -0.04 C4 0.19 4 0.19 6 2.19 C6.28 4.06 6.28 4.06 6.32 6.36 C6.34 7.22 6.36 8.08 6.38 8.97 C6.39 9.9 6.4 10.83 6.41 11.79 C6.43 12.74 6.45 13.69 6.47 14.67 C6.53 17.72 6.58 20.77 6.62 23.81 C6.66 25.88 6.7 27.94 6.74 30 C6.84 35.06 6.92 40.12 7 45.19 C8.65 45.52 10.3 45.85 12 46.19 C12 49.16 12 52.13 12 55.19 C8.06 57.16 3.35 56.52 -0.81 55.5 C-3.82 53.7 -4.56 52.43 -6 49.19 C-6.41 45.52 -6.35 41.88 -6.29 38.2 C-6.29 37.14 -6.28 36.08 -6.28 34.99 C-6.26 31.62 -6.23 28.25 -6.19 24.88 C-6.17 22.59 -6.16 20.3 -6.15 18.01 C-6.11 12.4 -6.06 6.79 -6 1.19 C-3.77 0.07 -2.47 0.02 0 0 Z " fill="#0A3860" transform="translate(108,255.8125)"/>
<path d="M0 0 C0.69 3.31 0.69 3.31 1 7 C-0.55 9.16 -1.59 9.89 -4.16 10.59 C-5.72 10.82 -7.28 11.05 -8.84 11.28 C-11.73 12.24 -12.43 13.41 -14 16 C-14.5 18.7 -14.5 18.7 -14.51 21.64 C-14.55 22.71 -14.58 23.78 -14.62 24.88 C-14.65 26.55 -14.65 26.55 -14.69 28.25 C-14.72 29.38 -14.76 30.5 -14.79 31.66 C-14.87 34.44 -14.94 37.22 -15 40 C-18.96 40 -22.92 40 -27 40 C-27.02 34.32 -27.04 28.64 -27.05 22.97 C-27.06 21.03 -27.07 19.1 -27.08 17.17 C-27.09 14.39 -27.09 11.62 -27.1 8.85 C-27.1 7.98 -27.11 7.11 -27.11 6.21 C-27.11 4.14 -27.06 2.07 -27 0 C-25.33 -1.67 -23.34 -1.17 -21.06 -1.19 C-20.17 -1.2 -19.27 -1.22 -18.35 -1.23 C-16 -1 -16 -1 -14 1 C-12.8 0.46 -11.61 -0.07 -10.38 -0.62 C-6.3 -2.18 -4.02 -1.91 0 0 Z " fill="#0F385E" transform="translate(197,271)"/>
<path d="M0 0 C1.32 0 2.64 0 4 0 C4 1.65 4 3.3 4 5 C4.97 5.12 5.94 5.25 6.94 5.38 C8.45 5.68 8.45 5.68 10 6 C10.33 6.66 10.66 7.32 11 8 C11.52 7.48 12.03 6.97 12.56 6.44 C15.98 4.42 18.2 5.23 22 6 C24.71 6 27.35 5.58 30.03 5.22 C34.13 4.76 37.96 5.19 42 6 C44.24 9.35 44.17 9.91 43.62 13.69 C43.51 14.5 43.4 15.3 43.29 16.14 C43.15 17.06 43.15 17.06 43 18 C35.58 19.34 35.58 19.34 33.06 17.88 C31.75 15.56 31.27 13.64 31 11 C31.33 10.34 31.66 9.68 32 9 C31.01 9.33 30.02 9.66 29 10 C28.67 12.64 28.34 15.28 28 18 C25.9 18.22 23.79 18.43 21.69 18.62 C20.52 18.74 19.34 18.86 18.14 18.98 C15 19 15 19 12 17 C10.02 17.99 10.02 17.99 8 19 C7 18 7 18 6.9 15.93 C6.91 15.11 6.93 14.29 6.94 13.44 C6.95 12.61 6.96 11.78 6.96 10.93 C6.98 10.3 6.99 9.66 7 9 C6.01 9 5.02 9 4 9 C4 11.97 4 14.94 4 18 C3.01 18.33 2.02 18.66 1 19 C0.34 18.67 -0.32 18.34 -1 18 C-1.62 14.94 -1.62 14.94 -2 12 C-2.27 12.97 -2.54 13.94 -2.81 14.94 C-3.2 15.95 -3.6 16.96 -4 18 C-4.99 18.33 -5.98 18.66 -7 19 C-7.66 17.35 -8.32 15.7 -9 14 C-9.66 14 -10.32 14 -11 14 C-11 15.32 -11 16.64 -11 18 C-11.99 18.33 -12.98 18.66 -14 19 C-16 18 -16 18 -17.07 15.28 C-17.42 14.18 -17.77 13.07 -18.12 11.94 C-18.48 10.83 -18.83 9.73 -19.2 8.59 C-19.46 7.74 -19.73 6.88 -20 6 C-18.35 6 -16.7 6 -15 6 C-14.34 7.32 -13.68 8.64 -13 10 C-12.67 8.68 -12.34 7.36 -12 6 C-10.35 6.33 -8.7 6.66 -7 7 C-6.67 7.99 -6.34 8.98 -6 10 C-5.67 8.68 -5.34 7.36 -5 6 C-3.68 6 -2.36 6 -1 6 C-1.02 5.2 -1.04 4.39 -1.06 3.56 C-1 1 -1 1 0 0 Z " fill="#72ADD8" transform="translate(29,328)"/>
<path d="M0 0 C1.65 0 3.3 0 5 0 C5.33 2.64 5.66 5.28 6 8 C6.33 7.34 6.66 6.68 7 6 C10.14 5.16 12.21 4.72 15.31 5.81 C17 7 17 7 18 9 C18.77 8 18.77 8 19.55 6.98 C22 5 22 5 25.45 4.83 C26.71 4.97 27.96 5.11 29.25 5.25 C31.14 5.44 31.14 5.44 33.08 5.64 C34.04 5.76 35.01 5.88 36 6 C36.66 7.65 37.32 9.3 38 11 C38.66 9.35 39.32 7.7 40 6 C41.32 6 42.64 6 44 6 C43.41 11.63 41.62 16.99 39 22 C36 24 36 24 32 24 C32 22.68 32 21.36 32 20 C32.99 19.67 33.98 19.34 35 19 C34.44 15.64 33.58 13.01 32 10 C31.96 10.84 31.93 11.69 31.89 12.55 C31.82 13.65 31.76 14.75 31.69 15.88 C31.6 17.51 31.6 17.51 31.51 19.18 C31.34 20.11 31.17 21.04 31 22 C27.53 24.31 26.07 24.34 22 24 C21.01 23.34 20.02 22.68 19 22 C18.81 18.88 18.81 18.88 19 16 C18.32 16.52 17.64 17.03 16.94 17.56 C13.18 19.4 11.03 18.84 7 18 C6.34 18 5.68 18 5 18 C3.33 18 1.67 18 0 18 C0 17.01 0 16.02 0 15 C-0.77 16.02 -0.77 16.02 -1.56 17.06 C-4 19 -4 19 -7.62 19 C-11 18 -11 18 -12.5 16.38 C-13.22 12.95 -12.88 10.38 -12 7 C-10.31 5.5 -10.31 5.5 -8 5 C-2.46 5.54 -2.46 5.54 -1 7 C-0.67 4.69 -0.34 2.38 0 0 Z M-8 9 C-8.33 10.65 -8.66 12.3 -9 14 C-7.51 14.99 -7.51 14.99 -6 16 C-5.34 15.34 -4.68 14.68 -4 14 C-4.32 11.4 -4.32 11.4 -5 9 C-5.99 9 -6.98 9 -8 9 Z M10 9 C9.67 10.65 9.34 12.3 9 14 C10.32 14.33 11.64 14.66 13 15 C13.33 13.35 13.66 11.7 14 10 C12.68 9.67 11.36 9.34 10 9 Z M23 9 C22.67 10.65 22.34 12.3 22 14 C23.49 14.99 23.49 14.99 25 16 C25.99 14.68 26.98 13.36 28 12 C27.34 11.01 26.68 10.02 26 9 C25.01 9 24.02 9 23 9 Z M23 19 C23.66 19.66 24.32 20.32 25 21 C25.33 20.34 25.66 19.68 26 19 C25.01 19 24.02 19 23 19 Z " fill="#6CACDA" transform="translate(295,328)"/>
<path d="M0 0 C1.7 1 1.7 1 3 3 C3.27 5.86 3.37 8.5 3.33 11.35 C3.33 12.17 3.32 12.98 3.32 13.82 C3.32 15.54 3.3 17.26 3.28 18.98 C3.25 21.62 3.24 24.26 3.23 26.91 C3.23 28.58 3.21 30.24 3.2 31.91 C3.2 33.11 3.2 33.11 3.19 34.32 C3.12 39.88 3.12 39.88 2 41 C0.15 41.07 -1.71 41.08 -3.56 41.06 C-4.57 41.05 -5.59 41.04 -6.63 41.04 C-7.8 41.02 -7.8 41.02 -9 41 C-10.6 37.79 -10.18 34.3 -10.2 30.78 C-10.21 29.97 -10.21 29.15 -10.22 28.32 C-10.23 26.59 -10.24 24.87 -10.24 23.15 C-10.25 20.51 -10.28 17.87 -10.31 15.23 C-10.32 13.56 -10.32 11.89 -10.33 10.22 C-10.34 9.43 -10.35 8.63 -10.37 7.82 C-10.36 5.59 -10.36 5.59 -10 2 C-6.31 -0.46 -4.37 -0.39 0 0 Z " fill="#09375E" transform="translate(94,270)"/>
<path d="M0 0 C1.7 1.28 1.7 1.28 3 3 C3.26 5.94 3.35 8.67 3.29 11.61 C3.29 12.44 3.28 13.28 3.28 14.15 C3.26 16.83 3.23 19.51 3.19 22.19 C3.17 24 3.16 25.82 3.15 27.64 C3.11 32.09 3.06 36.55 3 41 C-0.5 42.17 -3.33 42.13 -7 42 C-7.66 41.67 -8.32 41.34 -9 41 C-10 38.01 -10.13 36.03 -10.13 32.91 C-10.13 31.91 -10.14 30.9 -10.14 29.86 C-10.13 28.79 -10.13 27.72 -10.12 26.62 C-10.12 25.54 -10.12 24.46 -10.11 23.35 C-10 6.08 -10 6.08 -9 1 C-5.95 -0.52 -3.36 -0.24 0 0 Z " fill="#0F3A65" transform="translate(249,270)"/>
<path d="M0 0 C1.32 0 2.64 0 4 0 C4 1.32 4 2.64 4 4 C4.69 3.9 5.37 3.81 6.08 3.71 C6.98 3.6 7.88 3.49 8.81 3.38 C9.71 3.26 10.6 3.14 11.52 3.02 C14 3 14 3 17 5 C16.79 5.62 16.59 6.24 16.38 6.88 C16.19 7.93 16.19 7.93 16 9 C16.66 9.66 17.32 10.32 18 11 C17.62 13.62 17.62 13.62 17 16 C10.38 17.12 10.38 17.12 7 16 C6.01 16.25 6.01 16.25 5 16.5 C3 17 3 17 0 16 C-0.33 14.35 -0.66 12.7 -1 11 C-1.31 12.21 -1.31 12.21 -1.62 13.44 C-2.08 14.28 -2.53 15.13 -3 16 C-6.59 17.07 -8.43 17.19 -12 16 C-12.33 15.34 -12.66 14.68 -13 14 C-13.33 14.66 -13.66 15.32 -14 16 C-17.82 16.78 -20.27 17.24 -24 16 C-24.2 14.56 -24.38 13.13 -24.56 11.69 C-24.67 10.89 -24.77 10.09 -24.88 9.26 C-25 7 -25 7 -24 4 C-17.6 2.65 -17.6 2.65 -14.56 4.44 C-14.05 4.95 -13.53 5.47 -13 6 C-12.67 5.34 -12.34 4.68 -12 4 C-7.7 3.09 -4.25 2.84 0 4 C0 2.68 0 1.36 0 0 Z M-2 6 C-1 8 -1 8 -1 8 Z M4 7 C4 8.98 4 10.96 4 13 C7.47 12.5 7.47 12.5 11 12 C9.38 10.29 7.71 8.63 6 7 C5.34 7 4.68 7 4 7 Z M11 12 C11.66 12.66 12.32 13.32 13 14 C13 13.34 13 12.68 13 12 C12.34 12 11.68 12 11 12 Z " fill="#74AFD9" transform="translate(202,330)"/>
<path d="M0 0 C0.66 1.32 1.32 2.64 2 4 C2.99 3.67 3.98 3.34 5 3 C8.19 3.94 8.19 3.94 11 5 C11 5.33 11 5.66 11 6 C9.35 6 7.7 6 6 6 C6 6.99 6 7.98 6 9 C7.98 9 9.96 9 12 9 C12.33 9.66 12.66 10.32 13 11 C13.61 10.92 14.23 10.83 14.86 10.75 C15.67 10.64 16.48 10.54 17.31 10.44 C18.11 10.33 18.91 10.23 19.74 10.12 C22 10 22 10 25 11 C25 11.99 25 12.98 25 14 C22.69 13.67 20.38 13.34 18 13 C18 13.66 18 14.32 18 15 C21.3 15 24.6 15 28 15 C30.4 19.79 30.5 21.75 30 27 C28.12 29 28.12 29 26 30 C25.34 30 24.68 30 24 30 C24 26.7 24 23.4 24 20 C22.58 19.94 21.15 19.88 19.69 19.81 C18.89 19.78 18.09 19.74 17.26 19.71 C14.49 20.07 13.84 20.99 12 23 C7.65 22.89 5.02 21.02 2 18 C2 16.68 2 15.36 2 14 C0.68 13.67 -0.64 13.34 -2 13 C-2 13.99 -2 14.98 -2 16 C-2.99 15.41 -2.99 15.41 -4 14.81 C-8.2 13.68 -11.25 14.93 -15 17 C-15.33 17.66 -15.66 18.32 -16 19 C-16.66 18.67 -17.32 18.34 -18 18 C-12.97 10.67 -7.44 4.96 0 0 Z " fill="#0A3D68" transform="translate(117,25)"/>
<path d="M0 0 C0.99 0 1.98 0 3 0 C3.5 2.48 3.5 2.48 4 5 C4.97 5.14 5.94 5.29 6.94 5.44 C10 6 10 6 11 7 C11.07 8.85 11.08 10.71 11.06 12.56 C11.05 13.57 11.04 14.59 11.04 15.63 C11.02 16.41 11.01 17.19 11 18 C10.01 18.33 9.02 18.66 8 19 C5.95 16.95 6.3 12.7 6 10 C5.34 10 4.68 10 4 10 C3.67 12.64 3.34 15.28 3 18 C2.01 18 1.02 18 0 18 C-0.5 17.01 -0.5 17.01 -1 16 C-1.33 16.66 -1.66 17.32 -2 18 C-5.82 18.78 -8.27 19.24 -12 18 C-12 17.34 -12 16.68 -12 16 C-12.66 16 -13.32 16 -14 16 C-14 16.66 -14 17.32 -14 18 C-18.06 18.7 -21.04 19.06 -25 18 C-26.67 18.32 -28.34 18.65 -30 19 C-30.66 18.67 -31.32 18.34 -32 18 C-32 15.03 -32 12.06 -32 9 C-32.66 9 -33.32 9 -34 9 C-33.42 6.61 -32.78 4.33 -32 2 C-31.01 2 -30.02 2 -29 2 C-28.67 2.99 -28.34 3.98 -28 5 C-25.2 6.29 -23.57 5.92 -20.5 5.38 C-17 5 -17 5 -14.56 6.44 C-14.05 6.95 -13.53 7.47 -13 8 C-12.5 7.48 -12.01 6.97 -11.5 6.44 C-7.75 4.28 -5.19 5.23 -1 6 C-0.67 4.02 -0.34 2.04 0 0 Z M-29 9 C-29 10.98 -29 12.96 -29 15 C-27.68 15 -26.36 15 -25 15 C-25 13.02 -25 11.04 -25 9 C-26.32 9 -27.64 9 -29 9 Z M-1 8 C-1.33 8.66 -1.66 9.32 -2 10 C-2.97 9.81 -3.94 9.63 -4.94 9.44 C-5.95 9.29 -6.96 9.15 -8 9 C-9.3 10.07 -9.3 10.07 -9.06 12.56 C-9.04 13.37 -9.02 14.17 -9 15 C-6.36 14.67 -3.72 14.34 -1 14 C-0.67 12.02 -0.34 10.04 0 8 C-0.33 8 -0.66 8 -1 8 Z M-21 14 C-17 15 -17 15 -17 15 Z " fill="#76AFD8" transform="translate(258,328)"/>
<path d="M0 0 C4.07 -0.58 7.53 -0.87 11.16 1.28 C13.77 3.64 15.65 5.64 16.54 9.11 C16.73 13.52 15.6 15.67 13 19 C12.58 21.04 12.37 23.04 12.19 25.11 C12 27 12 27 11.38 29.25 C10.9 31.48 11.34 32.83 12 35 C12.82 38.37 13.12 39.64 12 43 C11.93 44.39 11.91 45.79 11.94 47.19 C11.96 48.45 11.98 49.7 12 51 C12.99 51 13.98 51 15 51 C13.54 55.52 11.05 58.41 8 62 C6.72 64.22 6.72 64.22 6 66 C5.34 66 4.68 66 4 66 C3.5 66.99 3.5 66.99 3 68 C2.67 67.01 2.34 66.02 2 65 C2.66 65 3.32 65 4 65 C3.67 63.35 3.34 61.7 3 60 C4.49 59.5 4.49 59.5 6 59 C6 58.34 6 57.68 6 57 C6.99 57 7.98 57 9 57 C9.66 54.03 10.32 51.06 11 48 C9.68 47.67 8.36 47.34 7 47 C6.01 43.04 5.02 39.08 4 35 C3.01 35.5 3.01 35.5 2 36 C2 36.66 2 37.32 2 38 C-0.47 38.5 -0.47 38.5 -3 39 C-2.67 35.04 -2.34 31.08 -2 27 C-1.34 27.33 -0.68 27.66 0 28 C-0.33 27.34 -0.66 26.68 -1 26 C-1.33 25.34 -1.66 24.68 -2 24 C-0.75 23.21 0.5 22.41 1.75 21.62 C2.45 21.18 3.14 20.74 3.86 20.29 C6 19 6 19 8.14 18.02 C10.33 17 10.33 17 12 14 C12.45 10.48 12.45 8.69 10.5 5.69 C6.99 3.32 4.21 3.28 0 3 C0 2.01 0 1.02 0 0 Z " fill="#0A3D67" transform="translate(238,108)"/>
<path d="M0 0 C2 2 2 2 2.06 5.38 C2.04 6.57 2.02 7.77 2 9 C2.43 11.31 2.43 11.31 3 13 C6.43 11.79 8.5 10.62 11 8 C11.66 8 12.32 8 13 8 C13 7.34 13 6.68 13 6 C13.66 6 14.32 6 15 6 C15 5.34 15 4.68 15 4 C15.97 3.88 16.94 3.75 17.94 3.62 C18.95 3.42 19.96 3.21 21 3 C21.33 2.34 21.66 1.68 22 1 C22.99 1.66 23.98 2.32 25 3 C24.9 5.28 24.9 5.28 24 8 C21.16 9.84 21.16 9.84 17.62 11.5 C12.78 13.78 10.51 15.27 8 20 C7.34 20 6.68 20 6 20 C6 24.95 6 29.9 6 35 C4 32 4 32 3 29 C3.66 29 4.32 29 5 29 C4.67 24.71 4.34 20.42 4 16 C1.69 15.67 -0.62 15.34 -3 15 C-2.67 13.35 -2.34 11.7 -2 10 C-2.62 9.88 -3.24 9.75 -3.88 9.62 C-6 9 -6 9 -8 7 C-7.75 3.44 -7.75 3.44 -7 0 C-4.29 -1.35 -2.87 -0.79 0 0 Z M-13.94 24.81 C-11 25 -11 25 -10 26 C-9.76 31.53 -9.76 31.53 -11 34 C-10.07 33.71 -9.15 33.42 -8.19 33.12 C-6.99 32.75 -5.8 32.38 -4.56 32 C-3.37 31.63 -2.17 31.26 -0.94 30.88 C2 30 2 30 3 30 C3.33 33.3 3.66 36.6 4 40 C3.01 40.5 3.01 40.5 2 41 C1.01 40.67 0.02 40.34 -1 40 C-1 39.34 -1 38.68 -1 38 C-0.34 37.67 0.32 37.34 1 37 C-0.05 37.07 -0.05 37.07 -1.12 37.14 C-8 37.4 -12.12 36.59 -18 33 C-19 32 -19 32 -19.19 29.56 C-18.9 25.63 -17.79 25.05 -13.94 24.81 Z " fill="#083F6B" transform="translate(116,55)"/>
<path d="M0 0 C0.9 0.01 1.79 0.03 2.71 0.04 C4.06 0.05 4.06 0.05 5.44 0.06 C7.65 0.23 7.65 0.23 8.65 1.23 C8.81 3.23 8.9 5.23 8.97 7.23 C9.03 9.06 9.03 9.06 9.1 10.92 C9.14 12.2 9.17 13.47 9.21 14.79 C9.26 16.08 9.3 17.36 9.35 18.68 C9.45 21.86 9.55 25.05 9.65 28.23 C8.99 28.23 8.33 28.23 7.65 28.23 C6.81 19.87 6.53 11.63 6.65 3.23 C5.99 3.23 5.33 3.23 4.65 3.23 C4.32 4.22 3.99 5.21 3.65 6.23 C2.99 6.23 2.33 6.23 1.65 6.23 C1.65 7.22 1.65 8.21 1.65 9.23 C2.97 9.23 4.29 9.23 5.65 9.23 C5.98 16.16 6.31 23.09 6.65 30.23 C3.44 31.3 1.01 31.23 -2.35 31.23 C-2.68 38.82 -3.01 46.41 -3.35 54.23 C-5.24 50.44 -5.59 49.37 -5.51 45.4 C-5.49 43.97 -5.49 43.97 -5.47 42.51 C-5.45 41.49 -5.42 40.46 -5.39 39.41 C-5.36 37.83 -5.36 37.83 -5.33 36.21 C-5.29 33.99 -5.24 31.76 -5.18 29.53 C-5.1 26.11 -5.04 22.69 -4.98 19.27 C-4.93 17.11 -4.88 14.95 -4.83 12.79 C-4.81 11.76 -4.8 10.73 -4.78 9.67 C-4.74 8.25 -4.74 8.25 -4.7 6.8 C-4.68 5.96 -4.66 5.13 -4.64 4.27 C-4.19 1.14 -3.09 0.3 0 0 Z " fill="#083864" transform="translate(309.34765625,255.76953125)"/>
<path d="M0 0 C1.51 0.02 1.51 0.02 3.06 0.04 C4.07 0.04 5.08 0.05 6.12 0.06 C7.3 0.08 7.3 0.08 8.5 0.1 C10.19 3.48 9.62 7.32 9.59 11.04 C9.59 11.93 9.59 12.81 9.59 13.72 C9.58 16.56 9.57 19.39 9.56 22.22 C9.55 24.14 9.55 26.06 9.54 27.98 C9.53 32.68 9.52 37.39 9.5 42.1 C16.43 42.1 23.36 42.1 30.5 42.1 C30.5 42.43 30.5 42.76 30.5 43.1 C23.24 43.1 15.98 43.1 8.5 43.1 C8.44 40.22 8.37 37.35 8.31 34.38 C8.25 31.61 8.19 28.84 8.12 26.06 C8.08 24.13 8.04 22.2 8 20.26 C7.94 17.49 7.88 14.72 7.81 11.95 C7.8 11.08 7.78 10.21 7.76 9.31 C8.05 5.39 8.05 5.39 6.5 2.1 C4.19 2.1 1.88 2.1 -0.5 2.1 C-0.5 15.3 -0.5 28.5 -0.5 42.1 C0.49 42.43 1.48 42.76 2.5 43.1 C2.17 43.76 1.84 44.42 1.5 45.1 C0.84 44.77 0.18 44.44 -0.5 44.1 C-0.17 46.41 0.16 48.72 0.5 51.1 C10.07 51.1 19.64 51.1 29.5 51.1 C29.5 50.11 29.5 49.12 29.5 48.1 C30.16 48.1 30.82 48.1 31.5 48.1 C31.54 49.76 31.54 51.43 31.5 53.1 C29.79 54.8 27.65 54.23 25.38 54.24 C24.66 54.23 23.95 54.23 23.21 54.23 C22.49 54.23 21.76 54.23 21.01 54.23 C19.46 54.23 17.92 54.23 16.38 54.23 C14.01 54.22 11.64 54.23 9.27 54.23 C7.77 54.23 6.27 54.23 4.78 54.23 C3.71 54.23 3.71 54.23 2.62 54.24 C-2.39 54.21 -2.39 54.21 -3.5 53.1 C-3.6 51.48 -3.63 49.85 -3.63 48.23 C-3.64 47.19 -3.64 46.15 -3.64 45.08 C-3.64 43.95 -3.64 42.82 -3.64 41.66 C-3.64 39.93 -3.64 39.93 -3.64 38.17 C-3.64 35.74 -3.64 33.3 -3.63 30.86 C-3.63 27.11 -3.63 23.37 -3.64 19.62 C-3.64 17.26 -3.64 14.9 -3.64 12.54 C-3.64 11.41 -3.64 10.28 -3.64 9.11 C-3.64 8.08 -3.64 7.04 -3.63 5.97 C-3.63 5.05 -3.63 4.13 -3.63 3.19 C-3.44 0.11 -3.1 0.12 0 0 Z " fill="#597593" transform="translate(204.50390625,256.90234375)"/>
<path d="M0 0 C1.05 -0.02 1.05 -0.02 2.12 -0.04 C4 0.19 4 0.19 6 2.19 C6.2 4.79 6.2 4.79 6.12 7.81 C6.11 8.82 6.09 9.82 6.07 10.85 C6.04 12.01 6.04 12.01 6 13.19 C5.67 13.19 5.34 13.19 5 13.19 C5 9.89 5 6.59 5 3.19 C2.36 3.19 -0.28 3.19 -3 3.19 C-3 16.06 -3 28.93 -3 42.19 C-2.67 39.55 -2.34 36.91 -2 34.19 C-1.01 33.69 -1.01 33.69 0 33.19 C0.06 33.96 0.12 34.73 0.18 35.52 C0.27 36.53 0.35 37.53 0.44 38.56 C0.52 39.56 0.6 40.56 0.68 41.59 C0.85 44.17 0.85 44.17 2 46.19 C1.01 46.19 0.02 46.19 -1 46.19 C-1.33 48.17 -1.66 50.15 -2 52.19 C2.65 51.7 2.65 51.7 7 50.19 C6.49 48.02 6 46.19 5 44.19 C4.91 42.01 4.89 39.83 4.9 37.65 C4.91 36.35 4.91 35.04 4.91 33.7 C4.92 32.32 4.93 30.94 4.94 29.56 C4.94 28.17 4.95 26.79 4.95 25.4 C4.96 21.99 4.98 18.59 5 15.19 C5.33 15.19 5.66 15.19 6 15.19 C6.33 25.09 6.66 34.99 7 45.19 C8.65 45.52 10.3 45.85 12 46.19 C12 49.16 12 52.13 12 55.19 C8.06 57.16 3.35 56.52 -0.81 55.5 C-3.82 53.7 -4.56 52.43 -6 49.19 C-6.41 45.52 -6.35 41.88 -6.29 38.2 C-6.29 37.14 -6.28 36.08 -6.28 34.99 C-6.26 31.62 -6.23 28.25 -6.19 24.88 C-6.17 22.59 -6.16 20.3 -6.15 18.01 C-6.11 12.4 -6.06 6.79 -6 1.19 C-3.77 0.07 -2.47 0.02 0 0 Z " fill="#2E5173" transform="translate(108,255.8125)"/>
<path d="M0 0 C5.82 -0.02 11.64 -0.04 17.46 -0.05 C19.44 -0.06 21.43 -0.07 23.41 -0.08 C26.25 -0.09 29.09 -0.09 31.93 -0.1 C32.83 -0.1 33.72 -0.11 34.64 -0.11 C36.76 -0.11 38.88 -0.06 41 0 C42 1 42 1 42.1 3.29 C42.07 5.86 42.03 8.43 42 11 C37.38 11 32.76 11 28 11 C28 21.89 28 32.78 28 44 C27.01 44 26.02 44 25 44 C24.91 39.21 24.86 34.5 25.5 29.75 C26.3 23.53 26.08 17.26 26 11 C25.67 13.31 25.34 15.62 25 18 C23.35 18 21.7 18 20 18 C19.67 17.34 19.34 16.68 19 16 C18.34 16 17.68 16 17 16 C17.38 13.56 17.38 13.56 18 11 C18.66 10.67 19.32 10.34 20 10 C19.34 9.34 18.68 8.68 18 8 C26.41 7.5 26.41 7.5 35 7 C34.34 6.67 33.68 6.34 33 6 C33 5.34 33 4.68 33 4 C23.1 4 13.2 4 3 4 C3 3.67 3 3.34 3 3 C13.89 2.67 24.78 2.34 36 2 C24.12 1.67 12.24 1.34 0 1 C0 0.67 0 0.34 0 0 Z " fill="#224C71" transform="translate(4,257)"/>
<path d="M0 0 C0.33 0 0.66 0 1 0 C1 25.08 1 50.16 1 76 C0.67 76 0.34 76 0 76 C-0.33 64.12 -0.66 52.24 -1 40 C-1.99 40 -2.98 40 -4 40 C-6.69 42.69 -7.06 45.38 -8 49 C-8.99 49 -9.98 49 -11 49 C-11 50.65 -11 52.3 -11 54 C-17.6 54 -24.2 54 -31 54 C-31 52.35 -31 50.7 -31 49 C-30.44 48.97 -29.88 48.95 -29.3 48.92 C-26.76 48.81 -24.23 48.69 -21.69 48.56 C-20.81 48.52 -19.93 48.48 -19.02 48.44 C-18.17 48.4 -17.32 48.36 -16.45 48.32 C-15.28 48.26 -15.28 48.26 -14.08 48.21 C-11.81 48.06 -11.81 48.06 -9 47 C-9.35 46.38 -9.7 45.76 -10.06 45.12 C-11.41 40.63 -10.66 36.59 -10 32 C-9.34 32 -8.68 32 -8 32 C-7.67 32.99 -7.34 33.98 -7 35 C-5.35 35 -3.7 35 -2 35 C-2 34.34 -2 33.68 -2 33 C-3.49 32.5 -3.49 32.5 -5 32 C-4.67 31.01 -4.34 30.02 -4 29 C-3.34 29 -2.68 29 -2 29 C-2 28.34 -2 27.68 -2 27 C-2.99 27 -3.98 27 -5 27 C-5 26.34 -5 25.68 -5 25 C-4.01 25 -3.02 25 -2 25 C-1.34 16.75 -0.68 8.5 0 0 Z " fill="#4497CA" transform="translate(232,75)"/>
<path d="M0 0 C2.89 2.04 4.05 3.63 5.56 6.81 C6.09 7.92 6.09 7.92 6.63 9.05 C7.76 12.39 7.79 15.12 7.76 18.64 C7.75 19.94 7.74 21.23 7.74 22.56 C7.72 23.92 7.7 25.27 7.69 26.62 C7.68 28 7.67 29.37 7.66 30.75 C7.64 34.1 7.6 37.46 7.56 40.81 C7.23 40.81 6.9 40.81 6.56 40.81 C6.23 35.53 5.9 30.25 5.56 24.81 C5.23 24.81 4.9 24.81 4.56 24.81 C4.56 20.19 4.56 15.57 4.56 10.81 C3.24 11.14 1.92 11.47 0.56 11.81 C0.56 13.79 0.56 15.77 0.56 17.81 C-0.43 18.14 -1.42 18.47 -2.44 18.81 C-2.44 17.49 -2.44 16.17 -2.44 14.81 C-3.43 15.8 -4.42 16.79 -5.44 17.81 C-5.69 17.05 -5.93 16.29 -6.19 15.5 C-7.55 12.58 -8.75 11.51 -11.44 9.81 C-9.79 7.83 -8.14 5.85 -6.44 3.81 C-7.76 3.15 -9.08 2.49 -10.44 1.81 C-10.11 1.48 -9.78 1.15 -9.44 0.81 C-10.43 0.48 -11.42 0.15 -12.44 -0.19 C-12.77 1.46 -13.1 3.11 -13.44 4.81 C-18.31 3.06 -18.31 3.06 -19.44 0.81 C-13.02 -1.89 -6.57 -2.27 0 0 Z " fill="#164269" transform="translate(291.4375,270.1875)"/>
<path d="M0 0 C0.33 0 0.66 0 1 0 C1 2.97 1 5.94 1 9 C2.98 9 4.96 9 7 9 C7 9.66 7 10.32 7 11 C7.61 10.89 8.23 10.79 8.86 10.68 C10.08 10.5 10.08 10.5 11.31 10.31 C12.11 10.18 12.91 10.06 13.74 9.93 C16 10 16 10 17.78 11.25 C19.74 14.06 19.24 16.69 19 20 C16.77 22.23 11.5 21.88 8.37 22.25 C4.89 22.4 4.89 22.4 2 24 C1.84 26.29 1.75 28.58 1.68 30.88 C1.66 31.57 1.64 32.25 1.62 32.96 C1.56 35.16 1.5 37.36 1.44 39.56 C1.39 41.05 1.35 42.54 1.31 44.03 C1.2 47.69 1.1 51.34 1 55 C0.67 55 0.34 55 0 55 C0 36.85 0 18.7 0 0 Z " fill="#4797CA" transform="translate(173,127)"/>
<path d="M0 0 C0.33 1.98 0.66 3.96 1 6 C1.66 6 2.32 6 3 6 C5.21 10.43 4.29 15.97 3 20.56 C2.67 21.37 2.34 22.17 2 23 C1.34 23 0.68 23 0 23 C-0.66 21.68 -1.32 20.36 -2 19 C-2.33 19.99 -2.66 20.98 -3 22 C-3.99 22 -4.98 22 -6 22 C-6 20.68 -6 19.36 -6 18 C-7.32 18 -8.64 18 -10 18 C-12.23 13.67 -11.98 10.72 -11 6 C-10.67 5.34 -10.34 4.68 -10 4 C-8.68 4 -7.36 4 -6 4 C-6 3.34 -6 2.68 -6 2 C-2.25 0 -2.25 0 0 0 Z " fill="#063962" transform="translate(264,59)"/>
<path d="M0 0 C4.66 4.22 7.71 8.65 8.27 15.04 C8.26 16.08 8.26 17.12 8.25 18.19 C8.26 19.76 8.26 19.76 8.27 21.36 C8 24 8 24 6 26 C3.39 20.12 3.82 14.29 4 8 C3.01 7.67 2.02 7.34 1 7 C1 6.01 1 5.02 1 4 C-0.65 4.33 -2.3 4.66 -4 5 C-3.81 5.72 -3.63 6.44 -3.44 7.19 C-2.98 10.13 -3.26 12.14 -4 15 C-4.8 13.86 -4.8 13.86 -5.62 12.69 C-8.2 9.77 -10.46 8.53 -14 7 C-12.38 5.29 -10.71 3.63 -9 2 C-8.34 2 -7.68 2 -7 2 C-7 1.34 -7 0.68 -7 0 C-9.88 -0.96 -11.7 -1.11 -14.69 -1.06 C-15.5 -1.05 -16.3 -1.04 -17.14 -1.04 C-17.75 -1.02 -18.37 -1.01 -19 -1 C-19.66 0.32 -20.32 1.64 -21 3 C-24.38 2.46 -27.7 1.89 -31 1 C-22.6 -6.39 -9.03 -6.01 0 0 Z " fill="#305272" transform="translate(158,273)"/>
<path d="M0 0 C1.65 0 3.3 0 5 0 C5.33 0.99 5.66 1.98 6 3 C5.01 3.99 4.02 4.98 3 6 C4.05 5.87 4.05 5.87 5.12 5.75 C6.03 5.64 6.94 5.54 7.88 5.44 C8.78 5.33 9.68 5.23 10.62 5.12 C13 5 13 5 15 6 C16.52 9.8 16.07 13.99 16 18 C14.54 18.19 13.08 18.38 11.62 18.56 C10.81 18.67 10 18.77 9.16 18.88 C7 19 7 19 5 18 C5 15.36 5 12.72 5 10 C4.34 9.67 3.68 9.34 3 9 C3 11.97 3 14.94 3 18 C2.01 18.33 1.02 18.66 0 19 C-0.66 18.67 -1.32 18.34 -2 18 C-3.06 12.85 -4.03 7.08 -1.56 2.25 C-1.05 1.51 -0.53 0.76 0 0 Z " fill="#93C6E6" transform="translate(81,328)"/>
<path d="M0 0 C6.38 -0.36 6.38 -0.36 8.71 0.99 C10.78 4.21 10.39 7.65 10.33 11.35 C10.33 12.17 10.32 12.98 10.32 13.82 C10.32 15.54 10.3 17.26 10.28 18.98 C10.25 21.62 10.24 24.26 10.23 26.91 C10.23 28.58 10.21 30.24 10.2 31.91 C10.2 33.11 10.2 33.11 10.19 34.32 C10.12 39.88 10.12 39.88 9 41 C7.15 41.07 5.29 41.08 3.44 41.06 C2.43 41.05 1.41 41.04 0.37 41.04 C-0.8 41.02 -0.8 41.02 -2 41 C-3.61 37.77 -3.12 34.25 -3.1 30.71 C-3.1 29.89 -3.09 29.07 -3.09 28.23 C-3.09 25.61 -3.08 22.99 -3.06 20.38 C-3.06 18.6 -3.05 16.83 -3.05 15.05 C-3.04 10.7 -3.02 6.35 -3 2 C-2.34 1.67 -1.68 1.34 -1 1 C-1 13.54 -1 26.08 -1 39 C2.47 38.5 2.47 38.5 6 38 C6.33 29.75 6.66 21.5 7 13 C6.34 13 5.68 13 5 13 C4.02 9.95 4.02 8.05 5 5 C3.68 5 2.36 5 1 5 C0.67 5.66 0.34 6.32 0 7 C0 6.01 0 5.02 0 4 C0.66 3.67 1.32 3.34 2 3 C1.34 2.67 0.68 2.34 0 2 C0 1.34 0 0.68 0 0 Z " fill="#294869" transform="translate(87,270)"/>
<path d="M0 0 C0.66 0.66 1.32 1.32 2 2 C2.33 1.34 2.66 0.68 3 0 C10.36 -1.43 10.36 -1.43 14 1 C14.29 3.6 14.29 3.6 14.19 6.62 C14.16 7.63 14.13 8.63 14.11 9.66 C14.07 10.43 14.04 11.21 14 12 C12.68 12 11.36 12 10 12 C10 9.03 10 6.06 10 3 C9.01 3.33 8.02 3.66 7 4 C6.67 6.97 6.34 9.94 6 13 C5.01 12.67 4.02 12.34 3 12 C2.67 11.34 2.34 10.68 2 10 C1.67 10.66 1.34 11.32 1 12 C-6.36 13.43 -6.36 13.43 -10 11 C-10.29 8.62 -10.29 8.62 -10.19 5.88 C-10.16 4.96 -10.13 4.05 -10.11 3.12 C-10.07 2.42 -10.04 1.72 -10 1 C-6.25 -1.11 -4.21 -1.1 0 0 Z M-6 3 C-6.33 4.65 -6.66 6.3 -7 8 C-5.51 8.99 -5.51 8.99 -4 10 C-3.34 9.34 -2.68 8.68 -2 8 C-2.32 5.4 -2.32 5.4 -3 3 C-3.99 3 -4.98 3 -6 3 Z " fill="#6BA7D4" transform="translate(137,334)"/>
<path d="M0 0 C0.2 2.32 0.2 2.32 0 5 C-1.32 6.55 -1.32 6.55 -3.12 7.88 C-6.95 10.87 -9.95 14.23 -13 18 C-14.65 17.01 -16.3 16.02 -18 15 C-17.34 13.68 -16.68 12.36 -16 11 C-17.65 11 -19.3 11 -21 11 C-21.33 11.66 -21.66 12.32 -22 13 C-22.66 12.67 -23.32 12.34 -24 12 C-23.34 11.01 -22.68 10.02 -22 9 C-21.34 9 -20.68 9 -20 9 C-19.77 8.44 -19.55 7.89 -19.31 7.31 C-14.48 -1.2 -9.05 -0.6 0 0 Z " fill="#1C4468" transform="translate(343,270)"/>
<path d="M0 0 C0 1.65 0 3.3 0 5 C-3.3 5.33 -6.6 5.66 -10 6 C-10.33 8.31 -10.66 10.62 -11 13 C-10.34 13 -9.68 13 -9 13 C-8.95 14.79 -8.91 16.58 -8.88 18.38 C-8.85 19.37 -8.83 20.37 -8.8 21.4 C-9 24 -9 24 -11 26 C-14 26.25 -14 26.25 -17 26 C-17.66 25.34 -18.32 24.68 -19 24 C-18.62 20.38 -18.62 20.38 -18 17 C-17.01 16.67 -16.02 16.34 -15 16 C-15.06 15.18 -15.12 14.36 -15.18 13.52 C-15.54 4.79 -15.54 4.79 -13.12 1.25 C-8.71 -0.51 -4.69 -0.33 0 0 Z " fill="#074573" transform="translate(118,99)"/>
<path d="M0 0 C0.33 0 0.66 0 1 0 C1.1 8.08 1.13 15.98 0 24 C-0.66 24 -1.32 24 -2 24 C-2.66 26.64 -3.32 29.28 -4 32 C-4.99 31.67 -5.98 31.34 -7 31 C-8.37 22.6 -9.31 14.51 -9 6 C-8.01 5.67 -7.02 5.34 -6 5 C-6 5.99 -6 6.98 -6 8 C-4.35 8 -2.7 8 -1 8 C-1.02 6.87 -1.04 5.73 -1.06 4.56 C-1 1 -1 1 0 0 Z " fill="#08375F" transform="translate(30,267)"/>
<path d="M0 0 C6.51 -0.37 6.51 -0.37 8.71 1.27 C10.96 4.29 10.36 7.99 10.29 11.61 C10.29 12.44 10.28 13.28 10.28 14.15 C10.26 16.83 10.23 19.51 10.19 22.19 C10.17 24 10.16 25.82 10.15 27.64 C10.11 32.09 10.06 36.55 10 41 C6.53 42.16 3.64 42.07 0 42 C-0.5 40.51 -0.5 40.51 -1 39 C-0.53 38.63 -0.05 38.26 0.44 37.88 C2.52 35.37 2.65 33.18 3 30 C3.99 29.67 4.98 29.34 6 29 C6.2 24.71 6.38 20.42 6.56 16.12 C6.62 14.9 6.67 13.68 6.73 12.42 C6.8 10.67 6.8 10.67 6.88 8.88 C6.93 7.8 6.97 6.73 7.02 5.61 C7.19 3.02 7.19 3.02 6 1 C4.02 1 2.04 1 0 1 C0 0.67 0 0.34 0 0 Z " fill="#163D61" transform="translate(242,270)"/>
<path d="M0 0 C0.95 -0.03 1.9 -0.05 2.88 -0.08 C5.44 0.25 5.44 0.25 7.27 1.44 C8.85 3.88 8.74 5.55 8.62 8.44 C8.6 9.34 8.57 10.24 8.54 11.17 C8.51 11.86 8.47 12.54 8.44 13.25 C7.12 13.25 5.8 13.25 4.44 13.25 C4.44 10.28 4.44 7.31 4.44 4.25 C3.45 4.75 3.45 4.75 2.44 5.25 C1.97 7.15 1.97 7.15 1.81 9.31 C1.69 10.61 1.56 11.91 1.44 13.25 C0.12 13.25 -1.2 13.25 -2.56 13.25 C-2.56 10.28 -2.56 7.31 -2.56 4.25 C-3.55 4.25 -4.54 4.25 -5.56 4.25 C-5.56 7.22 -5.56 10.19 -5.56 13.25 C-6.88 13.25 -8.2 13.25 -9.56 13.25 C-9.56 9.29 -9.56 5.33 -9.56 1.25 C-6.14 0.39 -3.48 0.06 0 0 Z " fill="#66A6D5" transform="translate(167.5625,332.75)"/>
<path d="M0 0 C2.97 0 5.94 0 9 0 C8.98 1.32 8.96 2.64 8.94 4 C8.93 8.42 9.36 12.63 10 17 C9.01 17.33 8.02 17.66 7 18 C6.67 20.97 6.34 23.94 6 27 C4.35 27 2.7 27 1 27 C1 21.72 1 16.44 1 11 C1.66 10.67 2.32 10.34 3 10 C3 8.68 3 7.36 3 6 C2.34 6 1.68 6 1 6 C0.67 4.02 0.34 2.04 0 0 Z " fill="#083760" transform="translate(172,271)"/>
<path d="M0 0 C1.94 1.62 1.94 1.62 3 4 C2.67 10.33 2.67 10.33 0 13 C-3.06 13.55 -5.94 13.54 -9 13 C-11.12 10.88 -11.12 10.88 -12 8 C-12 4.88 -12 4.88 -11 2 C-7.32 -1.26 -4.62 -1.51 0 0 Z " fill="#3C5B7B" transform="translate(250,255)"/>
<path d="M0 0 C4.07 -0.58 7.53 -0.87 11.16 1.28 C13.77 3.64 15.65 5.64 16.54 9.11 C16.73 13.52 15.6 15.67 13 19 C12.62 20.98 12.62 20.98 12.44 23.12 C12 27 12 27 10 29 C7.5 29.25 7.5 29.25 5 29 C3 27 3 27 2.88 23.88 C2.92 22.93 2.96 21.98 3 21 C4.76 20.06 6.52 19.11 8.27 18.17 C10.31 16.95 10.31 16.95 12 14 C12.45 10.48 12.45 8.69 10.5 5.69 C6.99 3.32 4.21 3.28 0 3 C0 2.01 0 1.02 0 0 Z " fill="#529CCB" transform="translate(238,108)"/>
<path d="M0 0 C1.5 1.38 1.5 1.38 3 3 C3 3.66 3 4.32 3 5 C2.53 5.44 2.06 5.88 1.57 6.33 C-0.38 8.4 -0.66 9.91 -1.19 12.69 C-1.35 13.5 -1.5 14.3 -1.67 15.14 C-1.78 15.75 -1.89 16.37 -2 17 C-1.01 17.33 -0.02 17.66 1 18 C0.67 18.99 0.34 19.98 0 21 C-1.65 21.33 -3.3 21.66 -5 22 C-5 22.66 -5 23.32 -5 24 C-6.32 24 -7.64 24 -9 24 C-9.11 24.57 -9.22 25.13 -9.33 25.71 C-9.49 26.45 -9.65 27.18 -9.81 27.94 C-9.96 28.67 -10.11 29.4 -10.27 30.15 C-10.51 30.76 -10.75 31.37 -11 32 C-12.48 32.5 -12.48 32.5 -14 33 C-11.94 21.98 -8.18 8.18 0 0 Z " fill="#1F496F" transform="translate(98,45)"/>
<path d="M0 0 C0.66 0.33 1.32 0.66 2 1 C2.33 0.67 2.66 0.34 3 0 C3.76 0.33 4.53 0.66 5.31 1 C7.99 2.17 7.99 2.17 11 2 C12.82 4.19 12.82 4.19 14.69 7 C15.31 7.93 15.93 8.86 16.57 9.81 C17.04 10.53 17.52 11.26 18 12 C17.34 12.66 16.68 13.32 16 14 C13 12 13 12 12 10 C10.02 10 8.04 10 6 10 C6 9.34 6 8.68 6 8 C5.01 8.33 4.02 8.66 3 9 C3.33 9.99 3.66 10.98 4 12 C4.99 12.33 5.98 12.66 7 13 C7.33 14.98 7.66 16.96 8 19 C7.22 18.2 6.43 17.39 5.62 16.56 C3.28 14.01 3.28 14.01 1 13 C1.01 13.7 1.02 14.4 1.04 15.12 C1.05 16.48 1.05 16.48 1.06 17.88 C1.07 18.78 1.09 19.68 1.1 20.62 C1 23 1 23 0 25 C-0.66 25 -1.32 25 -2 25 C-1.86 21.58 -1.71 18.17 -1.56 14.75 C-1.52 13.78 -1.48 12.81 -1.44 11.82 C-1.4 10.88 -1.36 9.95 -1.32 8.98 C-1.28 8.13 -1.24 7.27 -1.21 6.38 C-1.01 4.15 -0.61 2.15 0 0 Z M0 9 C1 12 1 12 1 12 Z " fill="#063964" transform="translate(318,286)"/>
<path d="M0 0 C3.38 0.94 3.38 0.94 5.38 3.94 C5.35 6.2 5.35 6.2 5 8.62 C4.83 9.84 4.83 9.84 4.66 11.07 C4.57 11.69 4.47 12.3 4.38 12.94 C1.51 13.57 -0.74 14.06 -3.62 13.94 C-6.69 11.81 -6.69 11.81 -8.62 8.94 C-8.71 5.66 -7.84 4.26 -6 1.56 C-3.62 -0.06 -3.62 -0.06 0 0 Z " fill="#49667F" transform="translate(91.625,255.0625)"/>
<path d="M0 0 C0.95 0.04 1.9 0.08 2.88 0.12 C3.21 0.78 3.53 1.45 3.88 2.12 C5.87 2.44 5.87 2.44 8.19 2.5 C11.23 2.8 12.75 3.05 15.44 4.62 C17.59 8.37 17.2 11.91 16.88 16.12 C15.88 16.45 14.9 16.78 13.88 17.12 C13.88 13.83 13.88 10.52 13.88 7.12 C12.45 7.06 11.03 7 9.56 6.94 C8.76 6.9 7.96 6.87 7.14 6.83 C4.36 7.19 3.73 8.13 1.88 10.12 C-0.8 9.86 -2.73 9.32 -5.12 8.12 C-5.25 5.25 -5.25 5.25 -5.12 2.12 C-3.12 0.12 -3.12 0.12 0 0 Z " fill="#4F98C6" transform="translate(127.125,37.875)"/>
<path d="M0 0 C0.12 7.75 0.12 7.75 -1 10 C-1.66 10 -2.32 10 -3 10 C-2.5 10.82 -2.01 11.65 -1.5 12.5 C0.32 16.75 0.24 19.42 0 24 C-0.56 23.38 -1.11 22.76 -1.69 22.12 C-4.08 19.93 -6 19.13 -9 18 C-10.66 14.68 -10.53 12.71 -10 9 C-3.73 0 -3.73 0 0 0 Z " fill="#083F6B" transform="translate(119,126)"/>
<path d="M0 0 C3 0.25 3 0.25 5 2.25 C5.38 5.98 5.15 7.03 3 10.25 C0 10.62 0 10.62 -3 10.25 C-3.66 9.26 -4.32 8.27 -5 7.25 C-8.58 6.62 -10.93 6.53 -14.02 8.6 C-15.75 10.09 -17.4 11.62 -19 13.25 C-19 9.25 -19 9.25 -17.06 6.62 C-13.62 3.95 -11.21 3.35 -6.99 2.71 C-3.84 1.98 -3.5 0.29 0 0 Z " fill="#4794C1" transform="translate(236,43.75)"/>
<path d="M0 0 C2.5 0.25 2.5 0.25 4.5 2.25 C4.75 5.25 4.75 5.25 4.5 8.25 C3.84 8.91 3.18 9.57 2.5 10.25 C2.23 12.29 2.23 12.29 2.19 14.56 C1.85 18.26 1.54 19.19 -0.81 22.31 C-3.5 24.25 -3.5 24.25 -7.5 24.25 C-6.13 21.09 -5.51 20.26 -2.5 18.25 C-2.06 16.35 -2.06 16.35 -2.19 14.25 C-2.19 13.55 -2.2 12.85 -2.2 12.12 C-2.35 10.01 -2.35 10.01 -4.5 8.25 C-4.75 5.25 -4.75 5.25 -4.5 2.25 C-2.5 0.25 -2.5 0.25 0 0 Z " fill="#5099C9" transform="translate(245.5,64.75)"/>
<path d="M0 0 C1.32 0 2.64 0 4 0 C4.33 1.65 4.66 3.3 5 5 C5.8 5.14 6.61 5.29 7.44 5.44 C10 6 10 6 11 7 C11.07 8.85 11.08 10.71 11.06 12.56 C11.05 13.57 11.04 14.59 11.04 15.63 C11.02 16.41 11.01 17.19 11 18 C10.01 18 9.02 18 8 18 C7.67 15.36 7.34 12.72 7 10 C6.34 10 5.68 10 5 10 C4.81 11.95 4.81 11.95 4.62 13.94 C4.41 16.15 4.41 16.15 4 18 C3.34 18.33 2.68 18.66 2 19 C1.34 18.67 0.68 18.34 0 18 C0 12.06 0 6.12 0 0 Z " fill="#6DAAD7" transform="translate(109,328)"/>
<path d="M0 0 C0.33 0 0.66 0 1 0 C1 16.5 1 33 1 50 C5.52 50.75 8.82 51.08 13.27 50.88 C14.43 50.83 15.58 50.78 16.77 50.73 C17.96 50.68 19.15 50.62 20.38 50.56 C22.19 50.48 22.19 50.48 24.05 50.4 C27.03 50.28 30.02 50.14 33 50 C33 49.01 33 48.02 33 47 C33.66 47 34.32 47 35 47 C35.04 48.67 35.04 50.33 35 52 C33.3 53.7 31.15 53.13 28.88 53.14 C28.17 53.14 27.45 53.13 26.72 53.13 C25.99 53.13 25.26 53.13 24.51 53.14 C22.97 53.14 21.42 53.13 19.88 53.13 C17.51 53.13 15.14 53.13 12.77 53.14 C11.27 53.14 9.78 53.13 8.28 53.13 C7.21 53.14 7.21 53.14 6.12 53.14 C1.11 53.11 1.11 53.11 0 52 C-0.09 50.37 -0.12 48.74 -0.11 47.11 C-0.11 46.07 -0.11 45.03 -0.11 43.96 C-0.11 42.83 -0.1 41.69 -0.1 40.53 C-0.1 39.37 -0.09 38.22 -0.09 37.03 C-0.09 33.34 -0.08 29.64 -0.06 25.94 C-0.06 23.44 -0.05 20.94 -0.05 18.44 C-0.04 12.29 -0.02 6.15 0 0 Z " fill="#758CA4" transform="translate(201,258)"/>
<path d="M0 0 C3.06 0.19 3.06 0.19 5.06 2.19 C5.31 4.69 5.31 4.69 5.06 7.19 C3.06 9.19 3.06 9.19 -0.31 10.06 C-4.14 11.25 -5.65 11.94 -7.94 15.19 C-8.75 18.83 -8.75 18.83 -8.94 22.19 C-9.93 21.86 -10.92 21.53 -11.94 21.19 C-12.31 18.06 -12.31 18.06 -11.94 14.19 C-10.56 12.5 -9.04 11.17 -7.4 9.74 C-5.01 7.2 -4.66 4.55 -3.94 1.19 C-2.94 0.19 -2.94 0.19 0 0 Z " fill="#509ECB" transform="translate(216.9375,29.8125)"/>
<path d="M0 0 C3 0.25 3 0.25 5 2.25 C5.31 5.19 5.31 5.19 5 8.25 C4.51 8.69 4.03 9.13 3.52 9.59 C1.37 11.93 1.5 13.81 1.31 16.94 C1.25 17.93 1.18 18.93 1.11 19.95 C1.08 20.71 1.04 21.47 1 22.25 C0.01 22.25 -0.98 22.25 -2 22.25 C-2.07 20.99 -2.07 20.99 -2.15 19.7 C-2.22 18.6 -2.3 17.5 -2.38 16.38 C-2.44 15.28 -2.51 14.19 -2.59 13.07 C-2.73 10.12 -2.73 10.12 -5 8.25 C-5.25 5.25 -5.25 5.25 -5 2.25 C-3 0.25 -3 0.25 0 0 Z " fill="#4C9BCC" transform="translate(192,19.75)"/>
<path d="M0 0 C0.33 0 0.66 0 1 0 C1 2.97 1 5.94 1 9 C-4.23 11.62 -5.6 10.62 -11 9 C-11 8.34 -11 7.68 -11 7 C-12.65 6.67 -14.3 6.34 -16 6 C-16 6.99 -16 7.98 -16 9 C-17.32 9.33 -18.64 9.66 -20 10 C-20 9.34 -20 8.68 -20 8 C-21.32 7.34 -22.64 6.68 -24 6 C-23.67 5.01 -23.34 4.02 -23 3 C-20.42 2.97 -17.83 2.95 -15.25 2.94 C-14.52 2.93 -13.79 2.92 -13.04 2.91 C-9.51 2.9 -6.39 3.05 -3 4 C-2.67 5.32 -2.34 6.64 -2 8 C-1.34 8 -0.68 8 0 8 C0 5.36 0 2.72 0 0 Z " fill="#093862" transform="translate(71,285)"/>
<path d="M0 0 C2.5 0.25 2.5 0.25 4.5 2.25 C4.75 5.25 4.75 5.25 4.5 8.25 C3.84 8.91 3.18 9.57 2.5 10.25 C2.2 12.62 2 14.99 1.88 17.38 C1.76 19.3 1.76 19.3 1.65 21.26 C1.6 22.25 1.55 23.23 1.5 24.25 C0.51 24.58 -0.48 24.91 -1.5 25.25 C-1.55 24.2 -1.6 23.15 -1.65 22.07 C-1.72 20.7 -1.8 19.32 -1.88 17.94 C-1.91 17.25 -1.94 16.56 -1.97 15.85 C-2.18 12.18 -2.42 10.37 -4.5 7.25 C-4.75 4.69 -4.75 4.69 -4.5 2.25 C-2.5 0.25 -2.5 0.25 0 0 Z " fill="#4E93C3" transform="translate(152.5,21.75)"/>
<path d="M0 0 C5.96 5.8 5.96 5.8 6.11 10.07 C6.11 11.36 6.1 12.65 6.1 13.98 C6.1 14.66 6.09 15.35 6.09 16.05 C6.09 18.24 6.08 20.43 6.06 22.62 C6.06 24.11 6.05 25.59 6.05 27.08 C6.04 30.72 6.02 34.36 6 38 C-8 38 -8 38 -10 37 C-9.67 36.34 -9.34 35.68 -9 35 C-4.52 33.74 -4.52 33.74 -2 35 C-2 35.66 -2 36.32 -2 37 C0.97 36.5 0.97 36.5 4 36 C3.67 26.76 3.34 17.52 3 8 C2.01 7.67 1.02 7.34 0 7 C-0.33 6.01 -0.66 5.02 -1 4 C-1.66 3.34 -2.32 2.68 -3 2 C-2.01 2 -1.02 2 0 2 C0 1.34 0 0.68 0 0 Z " fill="#47667F" transform="translate(73,273)"/>
<path d="M0 0 C-0.99 0.5 -0.99 0.5 -2 1 C-2.66 0.67 -3.32 0.34 -4 0 C-4 0.66 -4 1.32 -4 2 C-5.32 2.33 -6.64 2.66 -8 3 C-8.33 2.01 -8.66 1.02 -9 0 C-9.99 0 -10.98 0 -12 0 C-12 -0.66 -12 -1.32 -12 -2 C-16.18 -1.54 -18.18 -1.09 -21 2 C-21.99 2 -22.98 2 -24 2 C-24 2.66 -24 3.32 -24 4 C-24.99 4 -25.98 4 -27 4 C-26.67 5.32 -26.34 6.64 -26 8 C-24.68 8.33 -23.36 8.66 -22 9 C-22 8.01 -22 7.02 -22 6 C-18.7 6.33 -15.4 6.66 -12 7 C-12 7.33 -12 7.66 -12 8 C-12.6 8.12 -13.21 8.24 -13.83 8.37 C-14.63 8.53 -15.43 8.7 -16.25 8.88 C-17.43 9.12 -17.43 9.12 -18.64 9.37 C-21.03 9.9 -21.03 9.9 -23.05 11.2 C-23.69 11.46 -24.34 11.73 -25 12 C-26.32 11.34 -27.64 10.68 -29 10 C-29 7.03 -29 4.06 -29 1 C-18.58 -3.52 -10.76 -4.37 0 0 Z " fill="#405D79" transform="translate(73,272)"/>
<path d="M0 0 C2.94 0.19 2.94 0.19 3.94 1.19 C4.17 6.72 4.17 6.72 2.94 9.19 C3.78 8.86 4.63 8.53 5.5 8.19 C9.15 7.13 12.16 7.04 15.94 7.19 C15.94 8.18 15.94 9.17 15.94 10.19 C14.36 10.4 14.36 10.4 12.75 10.62 C9.12 11.05 9.12 11.05 6.5 12 C2.44 12.3 -0.64 10.25 -4.06 8.19 C-5.06 7.19 -5.06 7.19 -5.25 4.75 C-4.96 0.81 -3.86 0.24 0 0 Z " fill="#4891C0" transform="translate(102.0625,79.8125)"/>
<path d="M0 0 C1.09 4.07 1 7.78 1 12 C-1.74 13.37 -3.97 13.13 -7 13 C-7.66 12.67 -8.32 12.34 -9 12 C-8.81 11.28 -8.63 10.56 -8.44 9.81 C-7.82 7.02 -7.82 7.02 -8.62 4.38 C-9 2 -9 2 -7.94 0.12 C-5.09 -1.53 -3.1 -0.76 0 0 Z " fill="#7FB8DE" transform="translate(107,334)"/>
<path d="M0 0 C2.31 0.19 2.31 0.19 5 1 C8.97 6.29 10.25 11.29 10.2 17.83 C10.19 19.12 10.18 20.42 10.18 21.75 C10.16 23.1 10.14 24.46 10.12 25.81 C10.11 27.19 10.11 28.56 10.1 29.94 C10.07 33.29 10.04 36.65 10 40 C9.67 40 9.34 40 9 40 C8.67 34.72 8.34 29.44 8 24 C7.67 24 7.34 24 7 24 C7 19.38 7 14.76 7 10 C5.35 10 3.7 10 2 10 C0.68 6.38 0 3.9 0 0 Z " fill="#486785" transform="translate(289,271)"/>
<path d="M0 0 C2 2 2 2 2.06 5.38 C2.04 6.57 2.02 7.77 2 9 C2.43 11.31 2.43 11.31 3 13 C-1.24 12.35 -4.98 10.02 -8 7 C-7.69 3.5 -7.69 3.5 -7 0 C-4.29 -1.35 -2.87 -0.79 0 0 Z " fill="#529BC9" transform="translate(116,55)"/>
<path d="M0 0 C1 1 1 1 1.1 3.5 C1.09 4.51 1.07 5.52 1.06 6.56 C1.05 7.57 1.04 8.59 1.04 9.63 C1.02 10.41 1.01 11.19 1 12 C0.01 12 -0.98 12 -2 12 C-2.33 9.36 -2.66 6.72 -3 4 C-3.66 4 -4.32 4 -5 4 C-5.33 6.64 -5.66 9.28 -6 12 C-7.32 12 -8.64 12 -10 12 C-10 8.04 -10 4.08 -10 0 C-5.66 -0.87 -4.01 -1.11 0 0 Z " fill="#6BA9D6" transform="translate(280,334)"/>
<path d="M0 0 C1.59 3.17 1.12 6.59 1.1 10.07 C1.1 10.87 1.09 11.66 1.09 12.48 C1.09 15.03 1.08 17.58 1.06 20.12 C1.06 21.85 1.05 23.58 1.05 25.3 C1.04 29.53 1.02 33.77 1 38 C4.47 37.5 4.47 37.5 8 37 C8.33 27.43 8.66 17.86 9 8 C9.33 8 9.66 8 10 8 C10.33 18.56 10.66 29.12 11 40 C7.37 40 3.74 40 0 40 C-1.61 36.78 -1.14 33.28 -1.13 29.75 C-1.13 28.93 -1.13 28.11 -1.14 27.27 C-1.14 25.55 -1.13 23.82 -1.13 22.1 C-1.13 19.44 -1.13 16.79 -1.14 14.14 C-1.14 12.47 -1.13 10.79 -1.13 9.12 C-1.13 8.32 -1.14 7.53 -1.14 6.7 C-1.11 1.11 -1.11 1.11 0 0 Z " fill="#4C6986" transform="translate(85,271)"/>
<path d="M0 0 C0.66 0.66 1.32 1.32 2 2 C0.55 3.51 -0.91 5 -2.38 6.5 C-3.19 7.34 -4 8.17 -4.84 9.03 C-7 11 -7 11 -9 11 C-9 11.66 -9 12.32 -9 13 C-16.29 16.43 -16.29 16.43 -21 16 C-20.67 15.34 -20.34 14.68 -20 14 C-17.44 13.38 -17.44 13.38 -15 13 C-14.96 12.26 -14.92 11.51 -14.88 10.75 C-13.63 6.84 -11.56 5.85 -8 4 C-7.01 4.33 -6.02 4.66 -5 5 C-4.67 4.01 -4.34 3.02 -4 2 C-1.94 0.81 -1.94 0.81 0 0 Z " fill="#0B3B65" transform="translate(199,223)"/>
<path d="M0 0 C0.33 0 0.66 0 1 0 C1.33 12.54 1.66 25.08 2 38 C4.48 37.5 4.48 37.5 7 37 C7.66 37.33 8.32 37.66 9 38 C9 35.69 9 33.38 9 31 C9.33 31 9.66 31 10 31 C10 33.31 10 35.62 10 38 C10.66 38 11.32 38 12 38 C12 30.41 12 22.82 12 15 C12.66 15.33 13.32 15.66 14 16 C13.86 19.81 13.71 23.63 13.56 27.44 C13.52 28.53 13.48 29.61 13.44 30.74 C13.4 31.77 13.36 32.81 13.32 33.87 C13.26 35.31 13.26 35.31 13.21 36.78 C13 39 13 39 12 40 C10.17 40.1 8.33 40.13 6.5 40.12 C5.5 40.13 4.5 40.13 3.47 40.13 C1 40 1 40 0 39 C-0.09 36.12 -0.12 33.26 -0.1 30.37 C-0.1 29.51 -0.09 28.64 -0.09 27.75 C-0.09 24.98 -0.08 22.21 -0.06 19.44 C-0.06 17.56 -0.05 15.69 -0.05 13.81 C-0.04 9.21 -0.02 4.6 0 0 Z " fill="#657E95" transform="translate(258,271)"/>
<path d="M0 0 C6.27 0 12.54 0 19 0 C19 1.65 19 3.3 19 5 C12.73 5 6.46 5 0 5 C0 3.35 0 1.7 0 0 Z " fill="#043E6D" transform="translate(201,124)"/>
<path d="M0 0 C0.66 0 1.32 0 2 0 C2.33 0.99 2.66 1.98 3 3 C2.34 3 1.68 3 1 3 C1.66 4.32 2.32 5.64 3 7 C3.66 5.35 4.32 3.7 5 2 C5.66 2 6.32 2 7 2 C7 3.65 7 5.3 7 7 C7.66 7 8.32 7 9 7 C9 8.32 9 9.64 9 11 C9.66 11 10.32 11 11 11 C11 12.98 11 14.96 11 17 C8.56 16.62 8.56 16.62 6 16 C5.67 15.34 5.34 14.68 5 14 C4.01 14 3.02 14 2 14 C0.09 10.79 -0.22 8.46 -0.12 4.75 C-0.1 3.41 -0.1 3.41 -0.07 2.05 C-0.05 1.37 -0.02 0.7 0 0 Z " fill="#0C3860" transform="translate(41,294)"/>
<path d="M0 0 C0.99 0 1.98 0 3 0 C3 0.99 3 1.98 3 3 C3.99 2.67 4.98 2.34 6 2 C6.66 2.33 7.32 2.66 8 3 C8 3.66 8 4.32 8 5 C9.65 5.33 11.3 5.66 13 6 C12.33 7.33 11.67 8.67 11 10 C11.4 12.1 11.4 12.1 12 14 C10.68 14 9.36 14 8 14 C8 13.01 8 12.02 8 11 C7.2 10.73 6.39 10.46 5.56 10.19 C4.72 9.8 3.87 9.4 3 9 C2.67 8.01 2.34 7.02 2 6 C1.01 6 0.02 6 -1 6 C-1 5.34 -1 4.68 -1 4 C-1.66 3.67 -2.32 3.34 -3 3 C-2.34 3 -1.68 3 -1 3 C-0.67 2.01 -0.34 1.02 0 0 Z " fill="#083860" transform="translate(125,295)"/>
<path d="M0 0 C1.37 0.02 1.37 0.02 2.78 0.04 C3.7 0.04 4.62 0.05 5.56 0.06 C6.27 0.07 6.98 0.09 7.71 0.1 C7.71 0.43 7.71 0.76 7.71 1.1 C5.07 1.43 2.43 1.76 -0.29 2.1 C-0.29 3.75 -0.29 5.4 -0.29 7.1 C0.37 7.1 1.03 7.1 1.71 7.1 C2.04 8.42 2.37 9.74 2.71 11.1 C1.72 11.43 0.73 11.76 -0.29 12.1 C-0.29 16.72 -0.29 21.34 -0.29 26.1 C-0.62 26.1 -0.95 26.1 -1.29 26.1 C-1.62 31.05 -1.95 36 -2.29 41.1 C-2.62 41.1 -2.95 41.1 -3.29 41.1 C-3.31 35.42 -3.33 29.74 -3.34 24.06 C-3.35 22.13 -3.35 20.2 -3.36 18.26 C-3.37 15.49 -3.38 12.72 -3.38 9.95 C-3.39 9.08 -3.39 8.21 -3.4 7.31 C-3.4 5.24 -3.35 3.17 -3.29 1.1 C-2.29 0.1 -2.29 0.1 0 0 Z " fill="#6A87A1" transform="translate(173.28515625,269.90234375)"/>
<path d="M0 0 C1.05 -0.02 1.05 -0.02 2.12 -0.04 C4 0.19 4 0.19 6 2.19 C6.2 4.79 6.2 4.79 6.12 7.81 C6.11 8.82 6.09 9.82 6.07 10.85 C6.04 12.01 6.04 12.01 6 13.19 C5.67 13.19 5.34 13.19 5 13.19 C5 9.89 5 6.59 5 3.19 C1 3.1 1 3.1 -3 3.19 C-4.56 4.74 -4.16 6.27 -4.21 8.43 C-4.23 9.33 -4.25 10.23 -4.27 11.16 C-4.28 12.14 -4.3 13.12 -4.32 14.13 C-4.34 15.13 -4.36 16.12 -4.38 17.15 C-4.44 20.35 -4.5 23.55 -4.56 26.75 C-4.61 28.91 -4.65 31.08 -4.69 33.24 C-4.8 38.56 -4.9 43.87 -5 49.19 C-5.33 49.19 -5.66 49.19 -6 49.19 C-6 33.35 -6 17.51 -6 1.19 C-3.77 0.07 -2.47 0.02 0 0 Z " fill="#577189" transform="translate(108,255.8125)"/>
<path d="M0 0 C0.66 0.33 1.32 0.66 2 1 C2 2.32 2 3.64 2 5 C2.66 5 3.32 5 4 5 C4 5.99 4 6.98 4 8 C4.66 8 5.32 8 6 8 C5.67 11.63 5.34 15.26 5 19 C4.01 19 3.02 19 2 19 C2 19.66 2 20.32 2 21 C1.34 21 0.68 21 0 21 C-0.2 18.44 -0.38 15.88 -0.56 13.31 C-0.62 12.59 -0.67 11.87 -0.73 11.13 C-1 7.23 -1.01 3.79 0 0 Z " fill="#0B345C" transform="translate(306,259)"/>
<path d="M0 0 C0.66 0.33 1.32 0.66 2 1 C1.38 1.17 0.76 1.33 0.12 1.5 C-2.65 3.46 -3.14 5.51 -3.82 8.76 C-4.13 12.6 -3.33 15.38 -2 19 C-1.01 19.33 -0.02 19.66 1 20 C0.34 20.33 -0.32 20.66 -1 21 C-1.99 20.67 -2.98 20.34 -4 20 C-4 19.34 -4 18.68 -4 18 C-5.65 18 -7.3 18 -9 18 C-9.17 9.41 -9.17 9.41 -8 6 C-6 4.88 -6 4.88 -4 4 C-3.67 3.01 -3.34 2.02 -3 1 C-2.01 0.67 -1.02 0.34 0 0 Z " fill="#274A6C" transform="translate(137,280)"/>
<path d="M0 0 C0.9 0.01 1.79 0.03 2.71 0.04 C4.06 0.05 4.06 0.05 5.44 0.06 C7.65 0.23 7.65 0.23 8.65 1.23 C8.81 3.23 8.9 5.23 8.97 7.23 C9.03 9.06 9.03 9.06 9.1 10.92 C9.14 12.2 9.17 13.47 9.21 14.79 C9.26 16.08 9.3 17.36 9.35 18.68 C9.45 21.86 9.55 25.05 9.65 28.23 C8.99 28.23 8.33 28.23 7.65 28.23 C6.81 19.87 6.53 11.63 6.65 3.23 C5.19 3.29 3.73 3.38 2.28 3.48 C1.47 3.53 0.65 3.57 -0.18 3.62 C-2.54 4.02 -2.54 4.02 -3.64 6.28 C-3.87 6.92 -4.11 7.57 -4.35 8.23 C-4.47 5.36 -4.47 5.36 -4.35 2.23 C-2.35 0.23 -2.35 0.23 0 0 Z " fill="#4E6B89" transform="translate(309.34765625,255.76953125)"/>
<path d="M0 0 C2.31 0.33 4.62 0.66 7 1 C8.33 4.98 8.07 8.85 8 13 C3.55 13.5 3.55 13.5 -1 14 C-1.33 12.35 -1.66 10.7 -2 9 C-1.67 9.66 -1.34 10.32 -1 11 C1.47 10.66 1.47 10.66 4 10 C4.33 9.34 4.66 8.68 5 8 C3.68 7.34 2.36 6.68 1 6 C2.32 6 3.64 6 5 6 C4.67 5.34 4.34 4.68 4 4 C2.35 4 0.7 4 -1 4 C-0.67 2.68 -0.34 1.36 0 0 Z " fill="#579CCF" transform="translate(89,333)"/>
<path d="M0 0 C0.66 0.33 1.32 0.66 2 1 C1.01 2.48 1.01 2.48 0 4 C0.66 4 1.32 4 2 4 C2 5.32 2 6.64 2 8 C1.07 8.34 0.15 8.68 -0.81 9.02 C-2.01 9.47 -3.2 9.92 -4.44 10.38 C-5.63 10.82 -6.83 11.26 -8.06 11.71 C-11.1 12.67 -11.1 12.67 -12 15 C-12.66 14.67 -13.32 14.34 -14 14 C-5.75 1.98 -5.75 1.98 0 0 Z " fill="#194368" transform="translate(113,29)"/>
<path d="M0 0 C6.38 -0.36 6.38 -0.36 8.71 1 C10.76 4.17 10.37 7.52 10.29 11.17 C10.29 11.96 10.28 12.76 10.28 13.58 C10.26 16.11 10.23 18.65 10.19 21.19 C10.17 22.91 10.16 24.63 10.15 26.35 C10.11 30.57 10.06 34.78 10 39 C9.67 39 9.34 39 9 39 C7.94 29.99 7.66 20.99 7.39 11.93 C7.34 10.25 7.34 10.25 7.28 8.53 C7.25 7.52 7.22 6.5 7.19 5.46 C7.15 3 7.15 3 6 1 C4.02 1 2.04 1 0 1 C0 0.67 0 0.34 0 0 Z " fill="#6D8399" transform="translate(242,270)"/>
<path d="M0 0 C0.66 0.33 1.32 0.66 2 1 C0.52 4.99 -1.36 8.57 -3.5 12.25 C-4.41 13.84 -4.41 13.84 -5.34 15.45 C-7 18 -7 18 -9 19 C-9.33 16.69 -9.66 14.38 -10 12 C-9.01 11.67 -8.02 11.34 -7 11 C-5.04 8.02 -5 6.74 -5 3 C-2.62 1.19 -2.62 1.19 0 0 Z " fill="#2E5173" transform="translate(262,140)"/>
<path d="M0 0 C2 1 2 1 3.12 4.31 C4 8 4 8 4 12 C4.99 12.33 5.98 12.66 7 13 C7.33 14.98 7.66 16.96 8 19 C7.22 18.2 6.43 17.39 5.62 16.56 C3.28 14.01 3.28 14.01 1 13 C1.01 13.7 1.02 14.4 1.04 15.12 C1.05 16.48 1.05 16.48 1.06 17.88 C1.07 18.78 1.09 19.68 1.1 20.62 C1 23 1 23 0 25 C-0.66 25 -1.32 25 -2 25 C-1.86 21.58 -1.71 18.17 -1.56 14.75 C-1.52 13.78 -1.48 12.81 -1.44 11.82 C-1.4 10.88 -1.36 9.95 -1.32 8.98 C-1.28 8.13 -1.24 7.27 -1.21 6.38 C-1.01 4.15 -0.61 2.15 0 0 Z M0 9 C1 12 1 12 1 12 Z " fill="#123B62" transform="translate(318,286)"/>
<path d="M0 0 C1.32 0 2.64 0 4 0 C4 1.65 4 3.3 4 5 C5.32 5.33 6.64 5.66 8 6 C5.69 6.33 3.38 6.66 1 7 C1 10.3 1 13.6 1 17 C1.66 17 2.32 17 3 17 C3 14.36 3 11.72 3 9 C3.33 9 3.66 9 4 9 C4 11.97 4 14.94 4 18 C3.01 18.33 2.02 18.66 1 19 C0.34 18.67 -0.32 18.34 -1 18 C-2.43 12.33 -2.02 6.69 -1 1 C-0.67 0.67 -0.34 0.34 0 0 Z " fill="#ADD0E4" transform="translate(29,328)"/>
<path d="M0 0 C0.33 0 0.66 0 1 0 C1 4.95 1 9.9 1 15 C1.66 15 2.32 15 3 15 C3.33 14.34 3.66 13.68 4 13 C4 14.32 4 15.64 4 17 C4.99 17.33 5.98 17.66 7 18 C6.34 19.32 5.68 20.64 5 22 C4.01 22 3.02 22 2 22 C1.67 29.59 1.34 37.18 1 45 C-1.25 40.5 -1.25 40.5 -1.14 36.78 C-1.12 35.96 -1.09 35.14 -1.07 34.3 C-1.03 32.98 -1.03 32.98 -0.98 31.64 C-0.95 30.74 -0.93 29.83 -0.9 28.9 C-0.82 26.02 -0.72 23.13 -0.62 20.25 C-0.57 18.29 -0.51 16.34 -0.45 14.38 C-0.31 9.59 -0.16 4.79 0 0 Z " fill="#55708C" transform="translate(305,265)"/>
<path d="M0 0 C2.5 0.25 2.5 0.25 4.5 2.25 C4.75 4.75 4.75 4.75 4.5 7.25 C2.5 9.25 2.5 9.25 -0.56 9.44 C-3.5 9.25 -3.5 9.25 -4.5 8.25 C-4.69 5.31 -4.69 5.31 -4.5 2.25 C-2.5 0.25 -2.5 0.25 0 0 Z " fill="#063D6C" transform="translate(183.5,137.75)"/>
<path d="M0 0 C0.33 1.32 0.66 2.64 1 4 C-1.73 5.37 -3.98 5.13 -7 5 C-7.33 4.67 -7.66 4.34 -8 4 C-8 6.64 -8 9.28 -8 12 C-9.33 12 -10.67 12 -12 12 C-12.29 8.62 -12.42 5.37 -12 2 C-8.34 -1.88 -4.93 -1.06 0 0 Z " fill="#99CFED" transform="translate(51,334)"/>
<path d="M0 0 C1.67 -0.04 3.33 -0.04 5 0 C6 1 6 1 6.19 3.94 C6 7 6 7 4 9 C1.38 9.12 1.38 9.12 -1 9 C-1.66 7.68 -2.32 6.36 -3 5 C-6.96 5 -10.92 5 -15 5 C-15 4.34 -15 3.68 -15 3 C-10.38 3 -5.76 3 -1 3 C-0.67 3.66 -0.34 4.32 0 5 C0.99 5 1.98 5 3 5 C3 3.68 3 2.36 3 1 C2.01 0.67 1.02 0.34 0 0 Z " fill="#51A0CE" transform="translate(253,94)"/>
<path d="M0 0 C2.62 0.12 2.62 0.12 5.62 1.12 C5.37 3.47 5.03 5.8 4.62 8.12 C1.92 9.48 -0.38 9.19 -3.38 9.12 C-3.47 2.97 -3.47 2.97 -3.38 1.12 C-2.38 0.12 -2.38 0.12 0 0 Z " fill="#093760" transform="translate(88.375,255.875)"/>
<path d="M0 0 C-0.63 4.69 -0.63 4.69 -2.53 6.31 C-4.64 8.74 -4.3 10.53 -4.19 13.69 C-4.16 14.68 -4.13 15.68 -4.11 16.7 C-4.07 17.46 -4.04 18.22 -4 19 C-7.88 17.25 -7.88 17.25 -9 15 C-9.59 11.29 -9.62 8.94 -7.51 5.76 C-2.58 0 -2.58 0 0 0 Z " fill="#509DCA" transform="translate(118,127)"/>
<path d="M0 0 C3 1 3 1 4.69 3.81 C6.71 8.93 6.63 14.59 6 20 C5.34 20.66 4.68 21.32 4 22 C1.39 16.12 1.82 10.29 2 4 C1.01 3.67 0.02 3.34 -1 3 C-0.67 2.01 -0.34 1.02 0 0 Z " fill="#415E7E" transform="translate(160,277)"/>
<path d="M0 0 C2.31 0 4.62 0 7 0 C5.63 2.97 4.04 5.37 1.96 7.89 C1.38 8.6 0.8 9.31 0.2 10.04 C-0.4 10.77 -1 11.5 -1.62 12.25 C-2.24 13 -2.85 13.74 -3.48 14.51 C-4.98 16.34 -6.49 18.17 -8 20 C-8.66 19.67 -9.32 19.34 -10 19 C-10.62 16.94 -10.62 16.94 -11 15 C-10.34 15 -9.68 15 -9 15 C-9 15.66 -9 16.32 -9 17 C-8.34 17 -7.68 17 -7 17 C-6.57 15.79 -6.57 15.79 -6.12 14.56 C-5 12 -5 12 -3 11 C-3 9.68 -3 8.36 -3 7 C-1.68 6.67 -0.36 6.34 1 6 C0.67 4.02 0.34 2.04 0 0 Z " fill="#3B5C78" transform="translate(234,176)"/>
<path d="M0 0 C0 0.99 0 1.98 0 3 C-0.61 3.05 -1.23 3.1 -1.86 3.15 C-2.67 3.22 -3.48 3.3 -4.31 3.38 C-5.51 3.48 -5.51 3.48 -6.74 3.59 C-9.27 3.9 -9.27 3.9 -12 6 C-12.58 8.19 -12.58 8.19 -12.69 10.62 C-12.79 11.85 -12.79 11.85 -12.89 13.1 C-12.94 14.04 -12.94 14.04 -13 15 C-13.66 15 -14.32 15 -15 15 C-15.77 5.1 -15.77 5.1 -13.12 1.31 C-8.72 -0.54 -4.72 -0.33 0 0 Z " fill="#529FCE" transform="translate(118,99)"/>
<path d="M0 0 C0.33 1.32 0.66 2.64 1 4 C-3 5.6 -6.05 4.29 -10 3 C-10 5.31 -10 7.62 -10 10 C-11.65 9.67 -13.3 9.34 -15 9 C-14.34 8.34 -13.68 7.68 -13 7 C-12.71 6.2 -12.42 5.39 -12.12 4.56 C-9.45 -1.52 -6.08 -1.29 0 0 Z " fill="#BADDF4" transform="translate(256,334)"/>
<path d="M0 0 C0.33 0 0.66 0 1 0 C1 10.89 1 21.78 1 33 C0.01 33 -0.98 33 -2 33 C-2.15 25.56 -1.7 18.28 -1 10.88 C-0.9 9.82 -0.81 8.77 -0.71 7.69 C-0.48 5.12 -0.24 2.56 0 0 Z " fill="#43607D" transform="translate(31,268)"/>
<path d="M0 0 C4.29 0 8.58 0 13 0 C13 5 13 5 11.57 6.7 C10.95 7.17 10.33 7.64 9.69 8.12 C7.3 9.98 5.1 11.82 3 14 C3 12.35 3 10.7 3 9 C3.99 8.67 4.98 8.34 6 8 C5.34 7.67 4.68 7.34 4 7 C4 6.34 4 5.68 4 5 C3.67 4.34 3.34 3.68 3 3 C5.64 3 8.28 3 11 3 C11 2.34 11 1.68 11 1 C7.37 1 3.74 1 0 1 C0 0.67 0 0.34 0 0 Z " fill="#415F7B" transform="translate(330,270)"/>
<path d="M0 0 C4 3.45 6.02 7.41 8.31 12.06 C8.68 12.78 9.06 13.5 9.44 14.24 C12.12 19.63 12.12 19.63 11 23 C11 22.34 11 21.68 11 21 C10.34 21 9.68 21 9 21 C8.94 20.05 8.88 19.1 8.81 18.12 C8.41 16.58 8.41 16.58 8 15 C5.65 13.66 5.65 13.66 3 13 C2.01 12.34 1.02 11.68 0 11 C0.66 11 1.32 11 2 11 C2 8.69 2 6.38 2 4 C1.34 4 0.68 4 0 4 C0 2.68 0 1.36 0 0 Z " fill="#305574" transform="translate(256,44)"/>
<path d="M0 0 C0.33 0 0.66 0 1 0 C2.13 5.06 2.04 9.94 1.94 15.1 C2 17.86 2.37 20.31 3 23 C2.34 23.33 1.68 23.66 1 24 C0.59 26.32 0.26 28.66 0 31 C-0.33 31 -0.66 31 -1 31 C-1.03 27.33 -1.05 23.67 -1.06 20 C-1.07 18.97 -1.08 17.94 -1.09 16.88 C-1.11 11.15 -0.86 5.67 0 0 Z " fill="#3B5E7C" transform="translate(83,79)"/>
<path d="M0 0 C1.32 0 2.64 0 4 0 C4.1 6.11 3.77 11.93 3 18 C1.68 17.67 0.36 17.34 -1 17 C-0.67 11.39 -0.34 5.78 0 0 Z " fill="#5EA0CF" transform="translate(296,328)"/>
<path d="M0 0 C0 0.99 0 1.98 0 3 C-1.65 3 -3.3 3 -5 3 C-5 7.29 -5 11.58 -5 16 C-5.99 16 -6.98 16 -8 16 C-8.08 13.71 -8.14 11.42 -8.19 9.12 C-8.22 7.85 -8.26 6.57 -8.29 5.26 C-8.2 4.18 -8.1 3.11 -8 2 C-4.77 -0.15 -3.72 -0.2 0 0 Z " fill="#4C95C6" transform="translate(178,25)"/>
<path d="M0 0 C0 0.99 0 1.98 0 3 C-0.66 3 -1.32 3 -2 3 C-2 3.99 -2 4.98 -2 6 C-1.34 6.33 -0.68 6.66 0 7 C-1.32 7 -2.64 7 -4 7 C-4 8.32 -4 9.64 -4 11 C-4.66 10.67 -5.32 10.34 -6 10 C-5.67 8.68 -5.34 7.36 -5 6 C-8.7 5.05 -11.3 5.05 -15 6 C-13.61 3.22 -12.04 3 -9.19 1.88 C-7.88 1.35 -7.88 1.35 -6.54 0.8 C-4 0 -4 0 0 0 Z " fill="#375C7C" transform="translate(149,8)"/>
<path d="M0 0 C3.62 -0.19 3.62 -0.19 7 0 C7 2.64 7 5.28 7 8 C6.01 8 5.02 8 4 8 C4 6.35 4 4.7 4 3 C3.42 3.64 2.84 4.28 2.25 4.94 C0.02 6.98 -1.07 7.58 -4 8 C-2.88 5.03 -1.78 2.67 0 0 Z " fill="#0D3761" transform="translate(244,256)"/>
<path d="M0 0 C0.66 0.33 1.32 0.66 2 1 C1.01 2.48 1.01 2.48 0 4 C0.66 4 1.32 4 2 4 C2 4.66 2 5.32 2 6 C1.01 6 0.02 6 -1 6 C-1 7.98 -1 9.96 -1 12 C4.94 12 10.88 12 17 12 C17 12.33 17 12.66 17 13 C10.73 13 4.46 13 -2 13 C-2.33 14.32 -2.66 15.64 -3 17 C-3 15.35 -3 13.7 -3 12 C-3.99 11.67 -4.98 11.34 -6 11 C-5.34 10.67 -4.68 10.34 -4 10 C-3.31 7.67 -2.65 5.34 -2 3 C-1.34 2.01 -0.68 1.02 0 0 Z " fill="#3D8FC2" transform="translate(203,111)"/>
<path d="M0 0 C6.97 1.92 13.1 4.8 19 9 C19.33 9.66 19.66 10.32 20 11 C18.54 10.94 17.08 10.85 15.62 10.75 C14.41 10.68 14.41 10.68 13.16 10.61 C11 10 11 10 9.86 7.98 C9.58 7.33 9.29 6.67 9 6 C7.34 5.65 5.67 5.32 4 5 C1.69 3 1.69 3 0 1 C0 0.67 0 0.34 0 0 Z " fill="#42637F" transform="translate(213,10)"/>
<path d="M0 0 C2.31 0.33 4.62 0.66 7 1 C7.33 1.99 7.66 2.98 8 4 C4.87 5.04 4.01 4.93 1 4 C1 4.66 1 5.32 1 6 C2.98 6 4.96 6 7 6 C7 6.66 7 7.32 7 8 C4.69 7.67 2.38 7.34 0 7 C0 7.66 0 8.32 0 9 C-0.66 9 -1.32 9 -2 9 C-2.25 3.38 -2.25 3.38 0 0 Z " fill="#69A6D5" transform="translate(64,333)"/>
<path d="M0 0 C0.69 3.31 0.69 3.31 1 7 C-0.58 9.24 -1.58 9.9 -4.26 10.51 C-5.06 10.57 -5.86 10.63 -6.69 10.69 C-7.5 10.75 -8.3 10.82 -9.14 10.89 C-9.75 10.92 -10.37 10.96 -11 11 C-11 10.34 -11 9.68 -11 9 C-8.03 8.34 -5.06 7.68 -2 7 C-2 4.69 -2 2.38 -2 0 C-2.87 0.31 -2.87 0.31 -3.75 0.62 C-6.52 1.09 -7.65 0.43 -10 -1 C-6.19 -2.47 -3.71 -1.43 0 0 Z " fill="#455D75" transform="translate(197,271)"/>
<path d="M0 0 C3.88 1.88 3.88 1.88 5 3 C5.19 5.44 5.19 5.44 5 8 C3 10 3 10 0 10.25 C-3 10 -3 10 -5 8 C-5.12 5.38 -5.12 5.38 -5 3 C-4.01 3 -3.02 3 -2 3 C-1.67 4.32 -1.34 5.64 -1 7 C-0.34 7 0.32 7 1 7 C1 5.68 1 4.36 1 3 C0.34 2.34 -0.32 1.68 -1 1 C-0.67 0.67 -0.34 0.34 0 0 Z " fill="#509BCA" transform="translate(104,115)"/>
<path d="M0 0 C1.79 2.68 2.81 5.03 4 8 C4.99 9.48 4.99 9.48 6 11 C5.71 13.01 5.38 15.01 5 17 C5.33 17.66 5.66 18.32 6 19 C6.04 21 6.04 23 6 25 C1.57 20.57 0.28 12.17 -0.26 6.07 C-0.25 4.05 -0.14 2.02 0 0 Z " fill="#4B6883" transform="translate(83,110)"/>
<path d="M0 0 C3.99 0.56 6.11 0.98 8.8 4.07 C13 10.31 13 10.31 13 13 C9.82 12.66 8.98 11.98 6.75 9.56 C5 7 5 7 5 5 C4.01 4.67 3.02 4.34 2 4 C0.81 1.94 0.81 1.94 0 0 Z " fill="#3C5D78" transform="translate(137,204)"/>
<path d="M0 0 C0.66 0.33 1.32 0.66 2 1 C1.67 3.97 1.34 6.94 1 10 C0.34 10 -0.32 10 -1 10 C-1 9.34 -1 8.68 -1 8 C-4.3 8 -7.6 8 -11 8 C-7.72 4.32 -4.37 2.19 0 0 Z " fill="#2A5173" transform="translate(132,14)"/>
<path d="M0 0 C2.31 0 4.62 0 7 0 C0.85 8.45 0.85 8.45 -3 12 C-3.33 9.03 -3.66 6.06 -4 3 C-2.68 3.33 -1.36 3.66 0 4 C0 2.68 0 1.36 0 0 Z " fill="#3A5D7C" transform="translate(218,197)"/>
<path d="M0 0 C0 0.99 0 1.98 0 3 C-0.99 3 -1.98 3 -3 3 C-3.33 6.3 -3.66 9.6 -4 13 C-4.99 13 -5.98 13 -7 13 C-7.33 9.04 -7.66 5.08 -8 1 C-4 0 -4 0 0 0 Z " fill="#5D9BCA" transform="translate(61,333)"/>
<path d="M0 0 C0 3.74 -0.51 7.29 -1 11 C-2.32 11 -3.64 11 -5 11 C-4.01 14.96 -3.02 18.92 -2 23 C-2.99 23.33 -3.98 23.66 -5 24 C-6.81 18.56 -7.08 12.68 -4.92 7.31 C-1.92 1.92 -1.92 1.92 0 0 Z " fill="#4C6680" transform="translate(126,275)"/>
<path d="M0 0 C2 2 2 2 2.12 4.62 C2.08 5.41 2.04 6.19 2 7 C1.34 6.67 0.68 6.34 0 6 C-1.68 6.28 -3.35 6.61 -5 7 C-6.12 3.25 -6.12 3.25 -5 1 C-5.66 0.67 -6.32 0.34 -7 0 C-4.29 -1.35 -2.87 -0.79 0 0 Z " fill="#4C90BC" transform="translate(116,55)"/>
<path d="M0 0 C3.74 1.25 4.17 2.87 5.95 6.22 C7.3 8.52 9.09 10.16 11 12 C11.33 12.99 11.66 13.98 12 15 C12.66 15.66 13.32 16.32 14 17 C14 17.99 14 18.98 14 20 C13.34 20 12.68 20 12 20 C10.64 18.18 9.36 16.29 8.12 14.38 C7.11 12.81 7.11 12.81 6.07 11.21 C5.39 10.15 4.7 9.09 4 8 C3.25 6.92 2.51 5.84 1.74 4.73 C0 2 0 2 0 0 Z " fill="#47647E" transform="translate(97,150)"/>
<path d="M0 0 C1.65 0.33 3.3 0.66 5 1 C5.98 4.05 5.98 5.95 5 9 C3.35 9 1.7 9 0 9 C-0.33 9.66 -0.66 10.32 -1 11 C-1.66 11 -2.32 11 -3 11 C-2.67 9.35 -2.34 7.7 -2 6 C-0.02 6 1.96 6 4 6 C3.67 5.34 3.34 4.68 3 4 C0.47 3.34 0.47 3.34 -2 3 C-1.34 2.01 -0.68 1.02 0 0 Z " fill="#569BD0" transform="translate(193,333)"/>
<path d="M0 0 C2.97 0 5.94 0 9 0 C9.33 0.99 9.66 1.98 10 3 C10.66 3 11.32 3 12 3 C12 4.65 12 6.3 12 8 C9.36 7.01 6.72 6.02 4 5 C4.33 4.01 4.66 3.02 5 2 C3.35 2 1.7 2 0 2 C0 1.34 0 0.68 0 0 Z " fill="#274668" transform="translate(260,270)"/>
<path d="M0 0 C1.32 0.66 2.64 1.32 4 2 C4.19 4.88 4.19 4.88 4 8 C3.01 8.66 2.02 9.32 1 10 C1 9.34 1 8.68 1 8 C-0.32 7.34 -1.64 6.68 -3 6 C-2.67 4.68 -2.34 3.36 -2 2 C-1.34 2 -0.68 2 0 2 C0 1.34 0 0.68 0 0 Z " fill="#4D94C2" transform="translate(246,65)"/>
<path d="M0 0 C0.99 0 1.98 0 3 0 C3 5.28 3 10.56 3 16 C2.01 16.33 1.02 16.66 0 17 C0 11.33 0 5.67 0 0 Z " fill="#55A5D3" transform="translate(151,30)"/>
<path d="M0 0 C0.78 0.04 1.57 0.08 2.38 0.12 C2.05 0.78 1.71 1.44 1.38 2.12 C1.77 4.22 1.77 4.22 2.38 6.12 C1.06 6.45 -0.26 6.78 -1.62 7.12 C-1.96 6.14 -2.28 5.14 -2.62 4.12 C-7.25 4.12 -11.87 4.12 -16.62 4.12 C-16.62 3.8 -16.62 3.47 -16.62 3.12 C-15.78 3.08 -14.94 3.03 -14.07 2.98 C-12.97 2.9 -11.88 2.83 -10.75 2.75 C-9.11 2.65 -9.11 2.65 -7.45 2.54 C-3.98 2.03 -3.46 0.16 0 0 Z " fill="#246999" transform="translate(254.625,92.875)"/>
<path d="M0 0 C0.95 0.04 1.9 0.08 2.88 0.12 C2.22 2.44 1.56 4.74 0.88 7.12 C0.26 6.92 -0.36 6.71 -1 6.5 C-1.7 6.38 -2.4 6.25 -3.12 6.12 C-3.78 6.78 -4.44 7.45 -5.12 8.12 C-5.25 5.25 -5.25 5.25 -5.12 2.12 C-3.12 0.12 -3.12 0.12 0 0 Z " fill="#337AA8" transform="translate(127.125,37.875)"/>
<path d="M0 0 C3.63 0 7.26 0 11 0 C10.67 0.99 10.34 1.98 10 3 C9.67 2.67 9.34 2.34 9 2 C6.69 2 4.38 2 2 2 C2 8.93 2 15.86 2 23 C1.67 23 1.34 23 1 23 C0.67 15.41 0.34 7.82 0 0 Z " fill="#345575" transform="translate(202,257)"/>
<path d="M0 0 C0.33 0 0.66 0 1 0 C0.43 6.11 -0.43 12.37 -3 18 C-3.99 18.33 -4.98 18.66 -6 19 C-4.7 12.28 -2.7 6.28 0 0 Z " fill="#415C77" transform="translate(90,59)"/>
<path d="M0 0 C1.4 0.24 2.8 0.51 4.19 0.81 C4.19 1.14 4.19 1.47 4.19 1.81 C2.67 1.87 2.67 1.87 1.12 1.94 C-3.67 2.57 -6.49 5.51 -9.81 8.81 C-9.81 4.81 -9.81 4.81 -7.88 2 C-4.5 -0.41 -3.91 -0.44 0 0 Z " fill="#50A0CD" transform="translate(226.8125,48.1875)"/>
<path d="M0 0 C0.33 0.66 0.66 1.32 1 2 C1.66 2.33 2.32 2.66 3 3 C2.38 3.74 1.76 4.49 1.12 5.25 C-0.6 7.49 -1.86 9.44 -3 12 C-3.66 12 -4.32 12 -5 12 C-5.33 12.66 -5.66 13.32 -6 14 C-6.33 13.01 -6.66 12.02 -7 11 C-6.34 11 -5.68 11 -5 11 C-5.33 9.35 -5.66 7.7 -6 6 C-5.01 5.67 -4.02 5.34 -3 5 C-3 4.34 -3 3.68 -3 3 C-2.01 3 -1.02 3 0 3 C0 2.01 0 1.02 0 0 Z " fill="#3A5A77" transform="translate(247,162)"/>
<path d="M0 0 C0.95 0.04 1.9 0.08 2.88 0.12 C2.22 2.44 1.56 4.74 0.88 7.12 C0.26 6.94 -0.36 6.75 -1 6.56 C-3.17 5.89 -3.17 5.89 -5.12 7.12 C-5.25 4.75 -5.25 4.75 -5.12 2.12 C-3.12 0.12 -3.12 0.12 0 0 Z " fill="#2F78A7" transform="translate(217.125,29.875)"/>
<path d="M0 0 C0.33 0 0.66 0 1 0 C1 3.3 1 6.6 1 10 C0.01 10.5 0.01 10.5 -1 11 C-0.34 11.66 0.32 12.32 1 13 C0.62 15.62 0.62 15.62 0 18 C-0.99 17.67 -1.98 17.34 -3 17 C-4.19 13.94 -4.19 13.94 -5 11 C-3.35 10.34 -1.7 9.68 0 9 C0 6.03 0 3.06 0 0 Z " fill="#4791BF" transform="translate(105,105)"/>
<path d="M0 0 C3 0.25 3 0.25 5 2.25 C5.12 4.88 5.12 4.88 5 7.25 C4.38 6.51 4.38 6.51 3.75 5.75 C1.88 3.82 1.88 3.82 -2 4.25 C-3.75 5.67 -3.75 5.67 -5 7.25 C-5.12 4.88 -5.12 4.88 -5 2.25 C-3 0.25 -3 0.25 0 0 Z " fill="#519FCD" transform="translate(192,19.75)"/>
<path d="M0 0 C1.32 0.33 2.64 0.66 4 1 C3.67 4.96 3.34 8.92 3 13 C2.01 12.67 1.02 12.34 0 12 C0 8.04 0 4.08 0 0 Z " fill="#77ABD6" transform="translate(122,334)"/>
<path d="M0 0 C0.66 0 1.32 0 2 0 C2 0.66 2 1.32 2 2 C1.67 2.33 1.34 2.66 1 3 C1.99 3.33 2.98 3.66 4 4 C4.33 4.99 4.66 5.98 5 7 C1.54 8.49 1.54 8.49 -2 10 C-2 9.34 -2 8.68 -2 8 C-3.32 8.33 -4.64 8.66 -6 9 C-6 8.34 -6 7.68 -6 7 C-5.07 6.66 -5.07 6.66 -4.12 6.31 C-1.39 4.62 -0.95 3.01 0 0 Z " fill="#284F71" transform="translate(274,274)"/>
<path d="M0 0 C2.64 0.33 5.28 0.66 8 1 C7.34 2.32 6.68 3.64 6 5 C6.66 5.66 7.32 6.32 8 7 C2.38 7.25 2.38 7.25 -1 5 C-0.67 3.35 -0.34 1.7 0 0 Z M3 2 C3.66 2.66 4.32 3.32 5 4 C5.33 3.34 5.66 2.68 6 2 C5.01 2 4.02 2 3 2 Z " fill="#82BFE4" transform="translate(315,345)"/>
<path d="M0 0 C1.65 0 3.3 0 5 0 C5.66 1.65 6.32 3.3 7 5 C4.36 5 1.72 5 -1 5 C-1.33 6.65 -1.66 8.3 -2 10 C-2.33 10 -2.66 10 -3 10 C-3 8.35 -3 6.7 -3 5 C-3.66 5 -4.32 5 -5 5 C-4.67 4.01 -4.34 3.02 -4 2 C-4 2.66 -4 3.32 -4 4 C-2.68 3.67 -1.36 3.34 0 3 C0 2.01 0 1.02 0 0 Z " fill="#466684" transform="translate(55,291)"/>
<path d="M0 0 C0.99 0.33 1.98 0.66 3 1 C3 4.3 3 7.6 3 11 C0.36 11 -2.28 11 -5 11 C-5 10.67 -5 10.34 -5 10 C-3.02 10 -1.04 10 1 10 C0.81 9.22 0.63 8.43 0.44 7.62 C0 5 0 5 1 3 C-0.32 2.67 -1.64 2.34 -3 2 C-2.01 1.34 -1.02 0.68 0 0 Z " fill="#2C4965" transform="translate(43,257)"/>
<path d="M0 0 C0.66 0.66 1.32 1.32 2 2 C0.55 3.51 -0.91 5 -2.38 6.5 C-3.19 7.34 -4 8.17 -4.84 9.03 C-7 11 -7 11 -9 11 C-9.33 11.66 -9.66 12.32 -10 13 C-10 11.68 -10 10.36 -10 9 C-8.37 7.62 -6.7 6.29 -5 5 C-4.67 4.01 -4.34 3.02 -4 2 C-1.94 0.81 -1.94 0.81 0 0 Z " fill="#465F7B" transform="translate(199,223)"/>
<path d="M0 0 C1.65 0.33 3.3 0.66 5 1 C5 2.65 5 4.3 5 6 C5.66 6 6.32 6 7 6 C7 4.35 7 2.7 7 1 C7.66 1.33 8.32 1.66 9 2 C8.12 7.75 8.12 7.75 7 10 C5 9 5 9 4 8 C2.33 7.96 0.67 7.96 -1 8 C-0.67 7.34 -0.34 6.68 0 6 C0.99 6 1.98 6 3 6 C3 4.68 3 3.36 3 2 C2.01 1.34 1.02 0.68 0 0 Z " fill="#92C8ED" transform="translate(305,336)"/>
<path d="M0 0 C1.98 0.66 3.96 1.32 6 2 C4.63 4.95 3.01 7.44 1 10 C0.34 9.67 -0.32 9.34 -1 9 C-0.98 8.22 -0.96 7.43 -0.94 6.62 C-0.81 4.02 -0.81 4.02 -2 2 C-1.34 2 -0.68 2 0 2 C0 1.34 0 0.68 0 0 Z " fill="#3A5D7C" transform="translate(208,207)"/>
<path d="M0 0 C3 -0.31 3 -0.31 6 0 C8 2 8 2 8.12 4.62 C8.08 5.41 8.04 6.19 8 7 C7.01 7.33 6.02 7.66 5 8 C4.67 6.35 4.34 4.7 4 3 C2.02 3 0.04 3 -2 3 C-1.34 2.01 -0.68 1.02 0 0 Z " fill="#519BC8" transform="translate(233,44)"/>
<path d="M0 0 C1.98 0 3.96 0 6 0 C7.32 3.3 8.64 6.6 10 10 C9.01 10.5 9.01 10.5 8 11 C6.66 9.36 5.33 7.71 4 6.06 C3.26 5.15 2.52 4.23 1.75 3.29 C0 1 0 1 0 0 Z " fill="#30516F" transform="translate(119,182)"/>
<path d="M0 0 C1.32 0.33 2.64 0.66 4 1 C4 2.98 4 4.96 4 7 C1.62 7.19 1.62 7.19 -1 7 C-1.66 6.01 -2.32 5.02 -3 4 C-2.34 4 -1.68 4 -1 4 C-0.67 2.68 -0.34 1.36 0 0 Z " fill="#5297C5" transform="translate(244,130)"/>
<path d="M0 0 C0.99 0.33 1.98 0.66 3 1 C3 1.66 3 2.32 3 3 C4.62 3.03 6.25 3.05 7.88 3.06 C8.78 3.07 9.68 3.09 10.62 3.1 C13.02 3.16 13.02 3.16 15 2 C15 2.66 15 3.32 15 4 C15.99 4.33 16.98 4.66 18 5 C11.2 6.38 6.48 5.35 0 3 C0 2.01 0 1.02 0 0 Z " fill="#536A84" transform="translate(44,307)"/>
<path d="M0 0 C2.94 0.81 2.94 0.81 6 2 C6.33 2.99 6.66 3.98 7 5 C5.02 5 3.04 5 1 5 C0.67 6.65 0.34 8.3 0 10 C-1.12 8.38 -1.12 8.38 -2 6 C-1.12 2.75 -1.12 2.75 0 0 Z " fill="#8EC4E6" transform="translate(190,334)"/>
<path d="M0 0 C0.99 0.66 1.98 1.32 3 2 C1.61 5.36 0.08 7.07 -3 9 C-3.66 9 -4.32 9 -5 9 C-5.33 7.35 -5.66 5.7 -6 4 C-4.35 3.67 -2.7 3.34 -1 3 C-0.67 2.01 -0.34 1.02 0 0 Z " fill="#355977" transform="translate(159,301)"/>
<path d="M0 0 C4 5 4 5 8 10 C7.34 10.66 6.68 11.32 6 12 C3 10 3 10 2 8 C1.34 7.34 0.68 6.68 0 6 C0 5.34 0 4.68 0 4 C-0.33 3.34 -0.66 2.68 -1 2 C-0.67 1.34 -0.34 0.68 0 0 Z " fill="#2E4F6E" transform="translate(328,288)"/>
<path d="M0 0 C0.33 0.66 0.66 1.32 1 2 C2.65 2 4.3 2 6 2 C6 2.99 6 3.98 6 5 C0.38 6.12 0.38 6.12 -3 5 C-3 4.34 -3 3.68 -3 3 C-2.34 3 -1.68 3 -1 3 C-0.67 2.01 -0.34 1.02 0 0 Z " fill="#72AFD8" transform="translate(193,341)"/>
<path d="M0 0 C2.14 3.2 2.23 4.02 2.12 7.69 C2.11 8.5 2.09 9.3 2.07 10.14 C2.05 10.75 2.02 11.37 2 12 C1.01 12 0.02 12 -1 12 C-1.03 10.19 -1.05 8.38 -1.06 6.56 C-1.07 5.55 -1.09 4.54 -1.1 3.5 C-1 1 -1 1 0 0 Z " fill="#549BCF" transform="translate(259,334)"/>
<path d="M0 0 C5.88 0.88 5.88 0.88 7 2 C7.04 4.33 7.04 6.67 7 9 C6.34 9 5.68 9 5 9 C4.67 7.35 4.34 5.7 4 4 C2.35 4 0.7 4 -1 4 C-0.67 2.68 -0.34 1.36 0 0 Z " fill="#5398CD" transform="translate(305,333)"/>
<path d="M0 0 C-0.33 0.66 -0.66 1.32 -1 2 C-3.64 1.67 -6.28 1.34 -9 1 C-9.33 2.65 -9.66 4.3 -10 6 C-14.88 4.25 -14.88 4.25 -16 2 C-10.61 -0.27 -5.74 -0.2 0 0 Z " fill="#4F6A86" transform="translate(288,269)"/>
<path d="M0 0 C0.87 0.5 0.87 0.5 1.75 1 C4.2 2.27 4.2 2.27 8 2 C7.67 3.32 7.34 4.64 7 6 C4.69 5.67 2.38 5.34 0 5 C0 3.35 0 1.7 0 0 Z " fill="#5EA0D1" transform="translate(128,341)"/>
<path d="M0 0 C-0.33 0.66 -0.66 1.32 -1 2 C-1.99 2.33 -2.98 2.66 -4 3 C-4.33 5.64 -4.66 8.28 -5 11 C-5.66 11 -6.32 11 -7 11 C-7 7.7 -7 4.4 -7 1 C-4.54 -0.23 -2.72 -0.07 0 0 Z " fill="#4292CC" transform="translate(37,334)"/>
<path d="M0 0 C0.99 0 1.98 0 3 0 C3 3.3 3 6.6 3 10 C2.01 9.67 1.02 9.34 0 9 C0 6.03 0 3.06 0 0 Z " fill="#5899C9" transform="translate(80,337)"/>
<path d="M0 0 C2.62 4.87 4.33 9.42 4 15 C3.34 15 2.68 15 2 15 C0.25 9.76 -0.19 5.53 0 0 Z " fill="#4E6E86" transform="translate(268,67)"/>
<path d="M0 0 C0.66 0.33 1.32 0.66 2 1 C2.62 3.56 2.62 3.56 3 6 C1.35 6.66 -0.3 7.32 -2 8 C-2 6.68 -2 5.36 -2 4 C-2.99 4.5 -2.99 4.5 -4 5 C-3.67 4.01 -3.34 3.02 -3 2 C-2.01 2 -1.02 2 0 2 C0 1.34 0 0.68 0 0 Z " fill="#335879" transform="translate(119,22)"/>
<path d="M0 0 C1.12 1.62 1.12 1.62 2 4 C1.12 7.25 1.12 7.25 0 10 C-0.66 10 -1.32 10 -2 10 C-2.33 9.34 -2.66 8.68 -3 8 C-3.66 7.67 -4.32 7.34 -5 7 C-4.34 5.35 -3.68 3.7 -3 2 C-2.67 2.99 -2.34 3.98 -2 5 C-1.34 5 -0.68 5 0 5 C0 3.35 0 1.7 0 0 Z " fill="#A5CFEA" transform="translate(138,336)"/>
<path d="M0 0 C3.04 -0.08 5.07 0.02 8 1 C8 1.99 8 2.98 8 4 C1.25 4.12 1.25 4.12 -1 3 C-0.67 2.01 -0.34 1.02 0 0 Z " fill="#28496A" transform="translate(86,256)"/>
<path d="M0 0 C1.32 0.33 2.64 0.66 4 1 C4 1.66 4 2.32 4 3 C4.99 3 5.98 3 7 3 C7.66 5.64 8.32 8.28 9 11 C5.36 7.57 2.64 4.2 0 0 Z " fill="#4D6B83" transform="translate(128,193)"/>
<path d="M0 0 C1.5 1.12 1.5 1.12 3 3 C3.19 6.19 3.19 6.19 3 9 C2.34 9 1.68 9 1 9 C1 8.34 1 7.68 1 7 C0.01 7.5 0.01 7.5 -1 8 C-1 8.99 -1 9.98 -1 11 C-1.66 10.34 -2.32 9.68 -3 9 C-3 8.01 -3 7.02 -3 6 C-2.34 6 -1.68 6 -1 6 C-0.67 4.02 -0.34 2.04 0 0 Z " fill="#2A5579" transform="translate(114,164)"/>
<path d="M0 0 C2.57 2.57 2.54 4.48 3 8 C2.01 8.5 2.01 8.5 1 9 C0.67 9.66 0.34 10.32 0 11 C-1.07 9.04 -2.07 7.03 -3 5 C-2 3 -2 3 0 0 Z " fill="#3A5E7F" transform="translate(92,132)"/>
<path d="M0 0 C0.33 0 0.66 0 1 0 C0.67 2.31 0.34 4.62 0 7 C-0.99 7.33 -1.98 7.66 -3 8 C-3.73 10.02 -3.73 10.02 -4 12 C-4.99 11.34 -5.98 10.68 -7 10 C-7 9.01 -7 8.02 -7 7 C-5.55 6.38 -5.55 6.38 -4.06 5.75 C-0.88 4.35 -0.88 4.35 -0.12 1.81 C-0.08 1.21 -0.04 0.62 0 0 Z " fill="#4490C1" transform="translate(215,72)"/>
<path d="M0 0 C0 3.63 0 7.26 0 11 C-0.99 11 -1.98 11 -3 11 C-3 7.7 -3 4.4 -3 1 C-1 0 -1 0 0 0 Z " fill="#59A6D7" transform="translate(193,31)"/>
<path d="M0 0 C-0.33 1.98 -0.66 3.96 -1 6 C-3.31 6.33 -5.62 6.66 -8 7 C-4.25 4 -4.25 4 -2 4 C-2 3.34 -2 2.68 -2 2 C-3.98 2 -5.96 2 -8 2 C-4.77 -0.15 -3.72 -0.2 0 0 Z " fill="#A7D6F2" transform="translate(73,337)"/>
<path d="M0 0 C3.69 0.69 3.69 0.69 5 2 C5.07 3.52 5.08 5.04 5.06 6.56 C5.05 7.39 5.04 8.22 5.04 9.07 C5.02 10.02 5.02 10.02 5 11 C4.34 11 3.68 11 3 11 C2.84 8.98 2.67 6.96 2.51 4.95 C2.13 2.6 2.13 2.6 -1 1 C-0.67 0.67 -0.34 0.34 0 0 Z " fill="#4795CB" transform="translate(263,334)"/>
<path d="M0 0 C2.31 0.33 4.62 0.66 7 1 C7.33 2.32 7.66 3.64 8 5 C3.54 4.01 3.54 4.01 -1 3 C-0.67 2.01 -0.34 1.02 0 0 Z " fill="#6EA7CF" transform="translate(249,333)"/>
<path d="M0 0 C1.67 0 3.33 0 5 0 C4.45 3.37 3.95 5.08 2 8 C1.34 8 0.68 8 0 8 C0 5.36 0 2.72 0 0 Z " fill="#385973" transform="translate(181,271)"/>
<path d="M0 0 C0.33 0 0.66 0 1 0 C1 1.98 1 3.96 1 6 C1.66 6 2.32 6 3 6 C3 4.35 3 2.7 3 1 C3.33 1 3.66 1 4 1 C4.33 4.3 4.66 7.6 5 11 C1 9 1 9 0 7 C-0.04 4.67 -0.04 2.33 0 0 Z " fill="#4184B2" transform="translate(109,135)"/>
<path d="M0 0 C-0.33 0.99 -0.66 1.98 -1 3 C-1.78 2.96 -2.57 2.92 -3.38 2.88 C-6.16 2.71 -6.16 2.71 -8 5 C-8 3.02 -8 1.04 -8 -1 C-4.38 -2.21 -3.36 -1.54 0 0 Z " fill="#82BAE3" transform="translate(94,341)"/>
<path d="M0 0 C3.38 -0.12 3.38 -0.12 7 0 C9 2 9 2 9 6 C6.69 6 4.38 6 2 6 C3.32 5.34 4.64 4.68 6 4 C5.67 3.34 5.34 2.68 5 2 C2.47 1.34 2.47 1.34 0 1 C0 0.67 0 0.34 0 0 Z " fill="#4E98D4" transform="translate(235,335)"/>
<path d="M0 0 C1.97 3.93 2.25 5.41 2.19 9.62 C2.18 10.59 2.17 11.55 2.17 12.54 C2 15 2 15 1 17 C0.34 17 -0.32 17 -1 17 C-0.67 11.39 -0.34 5.78 0 0 Z " fill="#6279A1" transform="translate(317,294)"/>
<path d="M0 0 C1.38 1.29 2.71 2.63 4 4 C4 4.66 4 5.32 4 6 C-2.75 5.25 -2.75 5.25 -5 3 C-3.35 2.01 -1.7 1.02 0 0 Z " fill="#486886" transform="translate(173,233)"/>
<path d="M0 0 C0.66 0 1.32 0 2 0 C5 4.38 5 4.38 5 7 C5.66 7.33 6.32 7.66 7 8 C4 8 4 8 1.31 5.5 C0.55 4.68 -0.21 3.85 -1 3 C-0.67 2.01 -0.34 1.02 0 0 Z " fill="#3B5A7A" transform="translate(152,218)"/>
<path d="M0 0 C3.3 0 6.6 0 10 0 C10 1.65 10 3.3 10 5 C9.34 5.66 8.68 6.32 8 7 C7.01 7 6.02 7 5 7 C5 5 5 5 6.5 3.38 C7 2.92 7.49 2.47 8 2 C5.36 1.67 2.72 1.34 0 1 C0 0.67 0 0.34 0 0 Z " fill="#365B7D" transform="translate(159,4)"/>
<path d="M0 0 C0.62 1.81 0.62 1.81 1 4 C0.01 5.49 0.01 5.49 -1 7 C-3.44 6.62 -3.44 6.62 -6 6 C-6.33 5.34 -6.66 4.68 -7 4 C-3.53 3.5 -3.53 3.5 0 3 C0 2.01 0 1.02 0 0 Z " fill="#9CC6E1" transform="translate(257,339)"/>
<path d="M0 0 C0 1.98 0 3.96 0 6 C-0.33 5.01 -0.66 4.02 -1 3 C-2.98 3.33 -4.96 3.66 -7 4 C-7.33 3.01 -7.66 2.02 -8 1 C-5.11 0.17 -3.11 0 0 0 Z " fill="#90C7EB" transform="translate(188,340)"/>
<path d="M0 0 C0.99 0 1.98 0 3 0 C3 1.65 3 3.3 3 5 C4.32 5.33 5.64 5.66 7 6 C4.69 6.33 2.38 6.66 0 7 C0 4.69 0 2.38 0 0 Z " fill="#78B5DA" transform="translate(30,328)"/>
<path d="M0 0 C0.66 0 1.32 0 2 0 C2 1.65 2 3.3 2 5 C1.34 5 0.68 5 0 5 C-0.66 7.31 -1.32 9.62 -2 12 C-2.66 11.67 -3.32 11.34 -4 11 C-3.67 10.67 -3.34 10.34 -3 10 C-2.77 7.97 -2.55 5.94 -2.38 3.91 C-2 2 -2 2 0 0 Z " fill="#134F7D" transform="translate(252,125)"/>
<path d="M0 0 C3.33 2.69 4.58 6.04 6 10 C5.67 10.99 5.34 11.98 5 13 C5 12.34 5 11.68 5 11 C4.34 11 3.68 11 3 11 C2.67 9.02 2.34 7.04 2 5 C1.34 5 0.68 5 0 5 C0 3.35 0 1.7 0 0 Z " fill="#798FA4" transform="translate(262,54)"/>
<path d="M0 0 C0 0.66 0 1.32 0 2 C0.99 2.33 1.98 2.66 3 3 C-6 3 -6 3 -8 2 C-6.14 -1.72 -3.45 -1.07 0 0 Z " fill="#596D87" transform="translate(71,308)"/>
<path d="M0 0 C0.99 0.33 1.98 0.66 3 1 C3 2.65 3 4.3 3 6 C0.53 5.01 0.53 5.01 -2 4 C-2 3.01 -2 2.02 -2 1 C-1.34 0.67 -0.68 0.34 0 0 Z " fill="#1D486D" transform="translate(97,145)"/>
<path d="M0 0 C6.62 0.75 6.62 0.75 10 3 C8.02 3.66 6.04 4.32 4 5 C3.67 4.34 3.34 3.68 3 3 C2.01 2.67 1.02 2.34 0 2 C0 1.34 0 0.68 0 0 Z " fill="#3B5D7C" transform="translate(196,5)"/>
<path d="M0 0 C2.64 1.98 5.28 3.96 8 6 C7.01 6.99 6.02 7.98 5 9 C4.01 8.34 3.02 7.68 2 7 C2.99 7 3.98 7 5 7 C4.67 6.34 4.34 5.68 4 5 C3.01 4.67 2.02 4.34 1 4 C0.67 2.68 0.34 1.36 0 0 Z " fill="#47748F" transform="translate(234,21)"/>
<path d="M0 0 C2.31 0 4.62 0 7 0 C7 0.99 7 1.98 7 3 C4.69 3.33 2.38 3.66 0 4 C0 2.67 0 1.33 0 0 Z " fill="#7EB4D7" transform="translate(237,343)"/>
<path d="M0 0 C0.66 0 1.32 0 2 0 C2 0.66 2 1.32 2 2 C4.31 2 6.62 2 9 2 C9 2.66 9 3.32 9 4 C6.69 3.67 4.38 3.34 2 3 C2 3.66 2 4.32 2 5 C1.34 5 0.68 5 0 5 C0 3.35 0 1.7 0 0 Z " fill="#4396D7" transform="translate(62,337)"/>
<path d="M0 0 C1.98 0.66 3.96 1.32 6 2 C6.33 3.65 6.66 5.3 7 7 C6.34 7 5.68 7 5 7 C5 6.01 5 5.02 5 4 C3.35 3.67 1.7 3.34 0 3 C0 2.01 0 1.02 0 0 Z " fill="#4894CE" transform="translate(100,337)"/>
<path d="M0 0 C0.66 0 1.32 0 2 0 C2.66 2.64 3.32 5.28 4 8 C3.01 8.33 2.02 8.66 1 9 C0.67 6.03 0.34 3.06 0 0 Z " fill="#335273" transform="translate(120,290)"/>
<path d="M0 0 C2.02 0.07 4.04 0.13 6.05 0.2 C6.05 0.53 6.05 0.86 6.05 1.2 C3.74 1.53 1.43 1.86 -0.95 2.2 C-1.61 4.18 -2.27 6.16 -2.95 8.2 C-3.28 8.2 -3.61 8.2 -3.95 8.2 C-4.07 5.32 -4.07 5.32 -3.95 2.2 C-1.95 0.2 -1.95 0.2 0 0 Z " fill="#71869B" transform="translate(308.9453125,255.8046875)"/>
<path d="M0 0 C1.98 0.49 1.98 0.49 4 1 C3.67 2.32 3.34 3.64 3 5 C1.68 4.67 0.36 4.34 -1 4 C-0.67 2.68 -0.34 1.36 0 0 Z " fill="#084979" transform="translate(111,57)"/>
<path d="M0 0 C0.66 0.66 1.32 1.32 2 2 C0 4 0 4 -2.62 4.12 C-3.41 4.08 -4.19 4.04 -5 4 C-5 3.01 -5 2.02 -5 1 C-2.62 0.38 -2.62 0.38 0 0 Z " fill="#5B9DCD" transform="translate(309,343)"/>
<path d="M0 0 C0.56 0.37 1.11 0.74 1.69 1.12 C-1.82 2.73 -4.46 3.35 -8.31 3.12 C-7.31 1.12 -7.31 1.12 -5 -0.12 C-2.31 -0.88 -2.31 -0.88 0 0 Z " fill="#577188" transform="translate(186.3125,235.875)"/>
<path d="M0 0 C1.32 0 2.64 0 4 0 C3.67 1.65 3.34 3.3 3 5 C1.68 4.34 0.36 3.68 -1 3 C-0.67 2.01 -0.34 1.02 0 0 Z " fill="#053E75" transform="translate(190,23)"/>
<path d="M0 0 C1.98 0.66 3.96 1.32 6 2 C6.33 3.98 6.66 5.96 7 8 C4.35 5.42 2.06 3.08 0 0 Z " fill="#5E738F" transform="translate(319,297)"/>
<path d="M0 0 C2 1 2 1 4 4 C2.68 5.32 1.36 6.64 0 8 C-0.38 5.67 -0.71 3.34 -1 1 C-0.67 0.67 -0.34 0.34 0 0 Z " fill="#436888" transform="translate(253,151)"/>
<path d="M0 0 C1.24 3.58 0.75 6.34 0 10 C-0.99 10 -1.98 10 -3 10 C-2.05 6.65 -1.1 3.31 0 0 Z " fill="#438FC0" transform="translate(189,88)"/>
<path d="M0 0 C1.67 -0.04 3.33 -0.04 5 0 C6 1 6 1 6.06 3.56 C6.04 4.37 6.02 5.17 6 6 C5.34 6 4.68 6 4 6 C4 4.68 4 3.36 4 2 C2.68 2 1.36 2 0 2 C0 1.34 0 0.68 0 0 Z " fill="#5AA0CE" transform="translate(151,23)"/>
<path d="M0 0 C0.99 0.66 1.98 1.32 3 2 C2.67 3.65 2.34 5.3 2 7 C1.67 6.34 1.34 5.68 1 5 C0.01 5 -0.98 5 -2 5 C-2 4.34 -2 3.68 -2 3 C-1.34 3 -0.68 3 0 3 C0 2.01 0 1.02 0 0 Z " fill="#83BBE5" transform="translate(217,339)"/>
<path d="M0 0 C0.33 0 0.66 0 1 0 C1 2.97 1 5.94 1 9 C0.01 9.33 -0.98 9.66 -2 10 C-1.34 6.7 -0.68 3.4 0 0 Z " fill="#97C6E5" transform="translate(161,337)"/>
<path d="M0 0 C0.66 0.33 1.32 0.66 2 1 C1.67 3.64 1.34 6.28 1 9 C0.34 8.34 -0.32 7.68 -1 7 C-0.62 3.38 -0.62 3.38 0 0 Z " fill="#9BD4F3" transform="translate(299,337)"/>
<path d="M0 0 C1.65 0 3.3 0 5 0 C5 0.99 5 1.98 5 3 C3.35 3.33 1.7 3.66 0 4 C0 2.68 0 1.36 0 0 Z " fill="#60A3CD" transform="translate(44,333)"/>
<path d="M0 0 C0.99 0.33 1.98 0.66 3 1 C2.67 2.32 2.34 3.64 2 5 C1.01 5 0.02 5 -1 5 C-1.33 4.01 -1.66 3.02 -2 2 C-1.34 1.34 -0.68 0.68 0 0 Z " fill="#8EBBD6" transform="translate(123,328)"/>
<path d="M0 0 C0.66 0.33 1.32 0.66 2 1 C1.07 1.34 1.07 1.34 0.12 1.69 C-2.61 3.38 -3.05 4.99 -4 8 C-5 6 -5 6 -4.25 3.44 C-3 1 -3 1 0 0 Z " fill="#5C778A" transform="translate(137,280)"/>
<path d="M0 0 C0.99 0.33 1.98 0.66 3 1 C1.35 2.98 -0.3 4.96 -2 7 C-2.33 6.01 -2.66 5.02 -3 4 C-2.67 3.34 -2.34 2.68 -2 2 C-1.34 2 -0.68 2 0 2 C0 1.34 0 0.68 0 0 Z " fill="#566F85" transform="translate(204,217)"/>
<path d="M0 0 C1.32 0 2.64 0 4 0 C3.67 1.65 3.34 3.3 3 5 C2.01 4.67 1.02 4.34 0 4 C0 2.68 0 1.36 0 0 Z " fill="#06416F" transform="translate(102,118)"/>
<path d="M0 0 C2 4 2 4 1.81 6.19 C1.54 6.79 1.28 7.38 1 8 C0.01 8.33 -0.98 8.66 -2 9 C-1.34 6.03 -0.68 3.06 0 0 Z " fill="#526D8B" transform="translate(86,69)"/>
<path d="M0 0 C0.66 0.33 1.32 0.66 2 1 C1.69 2.94 1.69 2.94 1 5 C0.01 5.33 -0.98 5.66 -2 6 C-2.33 6.66 -2.66 7.32 -3 8 C-3.66 7.67 -4.32 7.34 -5 7 C-3.35 4.69 -1.7 2.38 0 0 Z " fill="#6A8FA2" transform="translate(104,36)"/>
<path d="M0 0 C1.71 1.28 3.37 2.62 5 4 C5 4.66 5 5.32 5 6 C5.99 6.33 6.98 6.66 8 7 C7.01 7.49 7.01 7.49 6 8 C1.2 4.55 1.2 4.55 0.19 1.75 C0.13 1.17 0.06 0.59 0 0 Z " fill="#48637D" transform="translate(244,30)"/>
<path d="M0 0 C1.32 0 2.64 0 4 0 C4 1.32 4 2.64 4 4 C2.35 3.67 0.7 3.34 -1 3 C-0.67 2.01 -0.34 1.02 0 0 Z " fill="#074879" transform="translate(151,25)"/>
<path d="M0 0 C0 1.65 0 3.3 0 5 C-1.32 5 -2.64 5 -4 5 C-4 3.68 -4 2.36 -4 1 C-1 0 -1 0 0 0 Z " fill="#7CB5DF" transform="translate(331,347)"/>
<path d="M0 0 C1.32 0 2.64 0 4 0 C3.69 1.94 3.69 1.94 3 4 C2.01 4.33 1.02 4.66 0 5 C0 3.35 0 1.7 0 0 Z " fill="#5D9DCD" transform="translate(335,334)"/>
<path d="M0 0 C0.66 0 1.32 0 2 0 C3.69 2.31 3.69 2.31 5 5 C4.67 5.99 4.34 6.98 4 8 C0 2.25 0 2.25 0 0 Z " fill="#516883" transform="translate(122,299)"/>
<path d="M0 0 C2.47 0.5 2.47 0.5 5 1 C5 2.65 5 4.3 5 6 C3.31 4.35 1.65 2.69 0 1 C0 0.67 0 0.34 0 0 Z " fill="#46677F" transform="translate(114,175)"/>
<path d="M0 0 C1.98 0.5 1.98 0.5 4 1 C4 1.99 4 2.98 4 4 C2.35 3.67 0.7 3.34 -1 3 C-0.67 2.01 -0.34 1.02 0 0 Z " fill="#064879" transform="translate(244,130)"/>
<path d="M0 0 C0.99 0.33 1.98 0.66 3 1 C2.67 3.31 2.34 5.62 2 8 C0 6 0 6 -0.12 2.88 C-0.08 1.93 -0.04 0.98 0 0 Z " fill="#3F5F7E" transform="translate(266,126)"/>
<path d="M0 0 C2.47 0.5 2.47 0.5 5 1 C4.67 1.99 4.34 2.98 4 4 C2.68 3.67 1.36 3.34 0 3 C0 2.01 0 1.02 0 0 Z " fill="#044577" transform="translate(243,68)"/>
<path d="M0 0 C0.99 0.33 1.98 0.66 3 1 C2.67 2.32 2.34 3.64 2 5 C1.01 5 0.02 5 -1 5 C-0.67 3.35 -0.34 1.7 0 0 Z " fill="#0A487D" transform="translate(235,46)"/>
<path d="M0 0 C0.66 0 1.32 0 2 0 C2 1.32 2 2.64 2 4 C2.66 4 3.32 4 4 4 C3.34 5.32 2.68 6.64 2 8 C1.01 8 0.02 8 -1 8 C-0.67 7.67 -0.34 7.34 0 7 C0.04 4.67 0.04 2.33 0 0 Z " fill="#14527F" transform="translate(156,23)"/>
<path d="M0 0 C2 1 2 1 2 1 Z " fill="#FFFFFF" transform="translate(88,312)"/>
<path d="" fill="#FFFFFF" transform="translate(0,0)"/>
<path d="" fill="#FFFFFF" transform="translate(0,0)"/>
<path d="" fill="#0000FF" transform="translate(0,0)"/>
</svg>
